<svg width="30" height="30" viewBox="0 0 30 30" fill="none" xmlns="http://www.w3.org/2000/svg">
<g clip-path="url(#clip0_1_35)">
<path d="M10.0001 30C12.7601 30 15.0002 27.76 15.0002 25V19.9999H10.0001C7.24006 19.9999 5 22.24 5 25C5 27.76 7.24006 30 10.0001 30Z" fill="#0ACF83"/>
<path d="M5 15C5 12.24 7.24006 9.99994 10.0001 9.99994H15.0002V19.9999H10.0001C7.24006 20 5 17.76 5 15Z" fill="#A259FF"/>
<path d="M5 5.00004C5 2.24004 7.24006 0 10.0001 0H15.0002V9.99996H10.0001C7.24006 9.99996 5 7.76004 5 5.00004Z" fill="#F24E1E"/>
<path d="M14.9999 0H20C22.76 0 25 2.24004 25 5.00004C25 7.76004 22.76 9.99996 20 9.99996H14.9999V0Z" fill="#FF7262"/>
<path d="M25 15C25 17.76 22.76 20 20 20C17.2399 20 14.9999 17.76 14.9999 15C14.9999 12.24 17.2399 9.99994 20 9.99994C22.76 9.99994 25 12.24 25 15Z" fill="#1ABCFE"/>
</g>
<defs>
<clipPath id="clip0_1_35">
<rect width="30" height="30" fill="white"/>
</clipPath>
</defs>
</svg>
