<svg width="624" height="249" viewBox="0 0 624 249" fill="none" xmlns="http://www.w3.org/2000/svg">
<rect width="624" height="249" fill="#191717"/>
<path d="M45.0746 56.3534V43.9898H47.6886V49.091H52.995V43.9898H55.603V56.3534H52.995V51.2461H47.6886V56.3534H45.0746ZM57.7099 56.3534V47.0807H60.2816V56.3534H57.7099ZM59.0018 45.8854C58.6194 45.8854 58.2914 45.7586 58.0178 45.505C57.7481 45.2475 57.6133 44.9396 57.6133 44.5814C57.6133 44.2272 57.7481 43.9234 58.0178 43.6698C58.2914 43.4122 58.6194 43.2834 59.0018 43.2834C59.3841 43.2834 59.7101 43.4122 59.9798 43.6698C60.2534 43.9234 60.3903 44.2272 60.3903 44.5814C60.3903 44.9396 60.2534 45.2475 59.9798 45.505C59.7101 45.7586 59.3841 45.8854 59.0018 45.8854ZM65.4145 43.9898L65.1791 52.6467H62.9695L62.7281 43.9898H65.4145ZM64.0743 56.5104C63.6759 56.5104 63.3338 56.3695 63.048 56.0878C62.7623 55.802 62.6214 55.4599 62.6254 55.0615C62.6214 54.6671 62.7623 54.329 63.048 54.0473C63.3338 53.7656 63.6759 53.6247 64.0743 53.6247C64.4566 53.6247 64.7927 53.7656 65.0825 54.0473C65.3722 54.329 65.5191 54.6671 65.5232 55.0615C65.5191 55.3271 65.4487 55.5706 65.3119 55.792C65.1791 56.0093 65.004 56.1844 64.7867 56.3172C64.5693 56.446 64.3319 56.5104 64.0743 56.5104ZM70.9262 43.9898L70.6908 52.6467H68.4813L68.2398 43.9898H70.9262ZM69.586 56.5104C69.1876 56.5104 68.8455 56.3695 68.5597 56.0878C68.274 55.802 68.1331 55.4599 68.1372 55.0615C68.1331 54.6671 68.274 54.329 68.5597 54.0473C68.8455 53.7656 69.1876 53.6247 69.586 53.6247C69.9684 53.6247 70.3044 53.7656 70.5942 54.0473C70.884 54.329 71.0309 54.6671 71.0349 55.0615C71.0309 55.3271 70.9604 55.5706 70.8236 55.792C70.6908 56.0093 70.5157 56.1844 70.2984 56.3172C70.0811 56.446 69.8436 56.5104 69.586 56.5104ZM47.6886 64.9898V77.3534H45.0746V64.9898H47.6886ZM51.9461 64.9898V66.2937C51.9461 66.664 51.8737 67.0423 51.7288 67.4287C51.5879 67.811 51.3988 68.1732 51.1613 68.5153C50.9239 68.8534 50.6643 69.1412 50.3825 69.3786L49.2476 68.7085C49.4488 68.3906 49.6259 68.0384 49.7789 67.652C49.9358 67.2657 50.0143 66.8169 50.0143 66.3058V64.9898H51.9461ZM53.2939 77.3534V68.0807H55.7449V69.7167H55.8535C56.0467 69.1734 56.3687 68.7447 56.8194 68.4308C57.2702 68.1169 57.8095 67.9599 58.4373 67.9599C59.0732 67.9599 59.6145 68.1189 60.0613 68.4368C60.508 68.7508 60.8058 69.1774 60.9547 69.7167H61.0513C61.2405 69.1854 61.5826 68.7608 62.0776 68.4429C62.5766 68.1209 63.1663 67.9599 63.8464 67.9599C64.7117 67.9599 65.414 68.2356 65.9533 68.787C66.4966 69.3343 66.7683 70.1111 66.7683 71.1172V77.3534H64.2026V71.6243C64.2026 71.1092 64.0658 70.7228 63.7921 70.4653C63.5184 70.2077 63.1763 70.0789 62.7658 70.0789C62.2989 70.0789 61.9347 70.2278 61.6731 70.5256C61.4115 70.8194 61.2807 71.2078 61.2807 71.6908V77.3534H58.7875V71.57C58.7875 71.1152 58.6567 70.753 58.3951 70.4834C58.1375 70.2137 57.7974 70.0789 57.3748 70.0789C57.0891 70.0789 56.8315 70.1513 56.6021 70.2962C56.3767 70.4371 56.1976 70.6363 56.0648 70.8939C55.932 71.1474 55.8656 71.4452 55.8656 71.7873V77.3534H53.2939ZM75.5656 77.3534L72.028 64.9898H74.8834L76.93 73.5803H77.0326L79.2904 64.9898H81.7354L83.9871 73.5984H84.0958L86.1423 64.9898H88.9978L85.4601 77.3534H82.9126L80.5582 69.2699H80.4616L78.1132 77.3534H75.5656ZM93.5783 77.5345C92.6245 77.5345 91.8034 77.3413 91.1152 76.955C90.431 76.5646 89.9038 76.0132 89.5336 75.3008C89.1633 74.5845 88.9782 73.7373 88.9782 72.7593C88.9782 71.8055 89.1633 70.9683 89.5336 70.2479C89.9038 69.5275 90.425 68.9661 91.0971 68.5636C91.7733 68.1612 92.5661 67.9599 93.4757 67.9599C94.0874 67.9599 94.6569 68.0585 95.1841 68.2557C95.7154 68.4489 96.1782 68.7407 96.5726 69.1311C96.9711 69.5215 97.281 70.0125 97.5023 70.6041C97.7237 71.1917 97.8343 71.8799 97.8343 72.6687V73.3751H90.0044V71.7813H95.4135C95.4135 71.411 95.333 71.083 95.1721 70.7973C95.0111 70.5115 94.7877 70.2882 94.502 70.1272C94.2202 69.9622 93.8922 69.8797 93.5179 69.8797C93.1275 69.8797 92.7814 69.9702 92.4796 70.1513C92.1818 70.3284 91.9483 70.5679 91.7793 70.8697C91.6103 71.1676 91.5237 71.4996 91.5197 71.8658V73.3811C91.5197 73.8399 91.6042 74.2363 91.7733 74.5704C91.9463 74.9044 92.1898 75.162 92.5037 75.3431C92.8176 75.5242 93.1899 75.6148 93.6206 75.6148C93.9063 75.6148 94.1679 75.5745 94.4054 75.494C94.6428 75.4135 94.8461 75.2928 95.0151 75.1318C95.1841 74.9708 95.3129 74.7736 95.4015 74.5402L97.78 74.6971C97.6593 75.2686 97.4118 75.7677 97.0375 76.1943C96.6672 76.6169 96.1883 76.9469 95.6007 77.1844C95.0171 77.4178 94.343 77.5345 93.5783 77.5345ZM99.5609 77.3534V64.9898H102.133V69.6382H102.211C102.324 69.3887 102.487 69.1351 102.7 68.8775C102.917 68.6159 103.199 68.3986 103.545 68.2256C103.895 68.0485 104.33 67.9599 104.849 67.9599C105.525 67.9599 106.149 68.137 106.721 68.4912C107.292 68.8413 107.749 69.3706 108.091 70.0789C108.433 70.7832 108.604 71.6666 108.604 72.7291C108.604 73.7634 108.437 74.6368 108.103 75.3491C107.773 76.0575 107.322 76.5948 106.751 76.961C106.183 77.3232 105.548 77.5043 104.843 77.5043C104.344 77.5043 103.92 77.4218 103.569 77.2568C103.223 77.0918 102.94 76.8845 102.718 76.635C102.497 76.3814 102.328 76.1259 102.211 75.8683H102.096V77.3534H99.5609ZM102.078 72.717C102.078 73.2684 102.155 73.7493 102.308 74.1599C102.461 74.5704 102.682 74.8903 102.972 75.1197C103.262 75.3451 103.614 75.4578 104.028 75.4578C104.447 75.4578 104.801 75.3431 105.091 75.1137C105.381 74.8803 105.6 74.5583 105.749 74.1478C105.902 73.7332 105.978 73.2563 105.978 72.717C105.978 72.1818 105.904 71.7109 105.755 71.3044C105.606 70.8979 105.387 70.58 105.097 70.3506C104.807 70.1211 104.451 70.0064 104.028 70.0064C103.61 70.0064 103.256 70.1171 102.966 70.3385C102.68 70.5598 102.461 70.8738 102.308 71.2802C102.155 71.6867 102.078 72.1657 102.078 72.717ZM118.686 77.3534H114.303V64.9898H118.722C119.966 64.9898 121.036 65.2373 121.934 65.7323C122.831 66.2233 123.521 66.9296 124.004 67.8513C124.491 68.7729 124.735 69.8756 124.735 71.1595C124.735 72.4474 124.491 73.5542 124.004 74.4798C123.521 75.4055 122.827 76.1158 121.922 76.6109C121.02 77.1059 119.942 77.3534 118.686 77.3534ZM116.917 75.1137H118.577C119.35 75.1137 120 74.9769 120.527 74.7032C121.058 74.4255 121.457 73.9969 121.722 73.4173C121.992 72.8337 122.127 72.0811 122.127 71.1595C122.127 70.2459 121.992 69.4993 121.722 68.9198C121.457 68.3403 121.06 67.9136 120.533 67.64C120.006 67.3663 119.356 67.2295 118.583 67.2295H116.917V75.1137ZM130.849 77.5345C129.895 77.5345 129.074 77.3413 128.386 76.955C127.702 76.5646 127.174 76.0132 126.804 75.3008C126.434 74.5845 126.249 73.7373 126.249 72.7593C126.249 71.8055 126.434 70.9683 126.804 70.2479C127.174 69.5275 127.696 68.9661 128.368 68.5636C129.044 68.1612 129.837 67.9599 130.746 67.9599C131.358 67.9599 131.927 68.0585 132.455 68.2557C132.986 68.4489 133.449 68.7407 133.843 69.1311C134.242 69.5215 134.551 70.0125 134.773 70.6041C134.994 71.1917 135.105 71.8799 135.105 72.6687V73.3751H127.275V71.7813H132.684C132.684 71.411 132.604 71.083 132.443 70.7973C132.282 70.5115 132.058 70.2882 131.772 70.1272C131.491 69.9622 131.163 69.8797 130.788 69.8797C130.398 69.8797 130.052 69.9702 129.75 70.1513C129.452 70.3284 129.219 70.5679 129.05 70.8697C128.881 71.1676 128.794 71.4996 128.79 71.8658V73.3811C128.79 73.8399 128.875 74.2363 129.044 74.5704C129.217 74.9044 129.46 75.162 129.774 75.3431C130.088 75.5242 130.46 75.6148 130.891 75.6148C131.177 75.6148 131.438 75.5745 131.676 75.494C131.913 75.4135 132.117 75.2928 132.286 75.1318C132.455 74.9708 132.583 74.7736 132.672 74.5402L135.051 74.6971C134.93 75.2686 134.682 75.7677 134.308 76.1943C133.938 76.6169 133.459 76.9469 132.871 77.1844C132.288 77.4178 131.613 77.5345 130.849 77.5345ZM145.179 68.0807L141.937 77.3534H139.039L135.798 68.0807H138.514L140.44 74.7153H140.537L142.456 68.0807H145.179ZM150.422 77.5345C149.468 77.5345 148.647 77.3413 147.959 76.955C147.275 76.5646 146.748 76.0132 146.377 75.3008C146.007 74.5845 145.822 73.7373 145.822 72.7593C145.822 71.8055 146.007 70.9683 146.377 70.2479C146.748 69.5275 147.269 68.9661 147.941 68.5636C148.617 68.1612 149.41 67.9599 150.319 67.9599C150.931 67.9599 151.501 68.0585 152.028 68.2557C152.559 68.4489 153.022 68.7407 153.416 69.1311C153.815 69.5215 154.125 70.0125 154.346 70.6041C154.567 71.1917 154.678 71.8799 154.678 72.6687V73.3751H146.848V71.7813H152.257C152.257 71.411 152.177 71.083 152.016 70.7973C151.855 70.5115 151.631 70.2882 151.346 70.1272C151.064 69.9622 150.736 69.8797 150.362 69.8797C149.971 69.8797 149.625 69.9702 149.323 70.1513C149.026 70.3284 148.792 70.5679 148.623 70.8697C148.454 71.1676 148.367 71.4996 148.363 71.8658V73.3811C148.363 73.8399 148.448 74.2363 148.617 74.5704C148.79 74.9044 149.034 75.162 149.347 75.3431C149.661 75.5242 150.034 75.6148 150.464 75.6148C150.75 75.6148 151.012 75.5745 151.249 75.494C151.487 75.4135 151.69 75.2928 151.859 75.1318C152.028 74.9708 152.157 74.7736 152.245 74.5402L154.624 74.6971C154.503 75.2686 154.256 75.7677 153.881 76.1943C153.511 76.6169 153.032 76.9469 152.444 77.1844C151.861 77.4178 151.187 77.5345 150.422 77.5345ZM158.928 64.9898V77.3534H156.356V64.9898H158.928ZM165.178 77.5345C164.24 77.5345 163.429 77.3353 162.745 76.9368C162.065 76.5344 161.54 75.975 161.169 75.2586C160.799 74.5382 160.614 73.7031 160.614 72.7533C160.614 71.7954 160.799 70.9583 161.169 70.2419C161.54 69.5215 162.065 68.9621 162.745 68.5636C163.429 68.1612 164.24 67.9599 165.178 67.9599C166.116 67.9599 166.925 68.1612 167.605 68.5636C168.289 68.9621 168.816 69.5215 169.186 70.2419C169.557 70.9583 169.742 71.7954 169.742 72.7533C169.742 73.7031 169.557 74.5382 169.186 75.2586C168.816 75.975 168.289 76.5344 167.605 76.9368C166.925 77.3353 166.116 77.5345 165.178 77.5345ZM165.19 75.5423C165.617 75.5423 165.973 75.4216 166.258 75.1801C166.544 74.9346 166.759 74.6006 166.904 74.178C167.053 73.7554 167.128 73.2744 167.128 72.7351C167.128 72.1958 167.053 71.7149 166.904 71.2923C166.759 70.8697 166.544 70.5357 166.258 70.2902C165.973 70.0447 165.617 69.9219 165.19 69.9219C164.759 69.9219 164.397 70.0447 164.103 70.2902C163.813 70.5357 163.594 70.8697 163.445 71.2923C163.3 71.7149 163.228 72.1958 163.228 72.7351C163.228 73.2744 163.3 73.7554 163.445 74.178C163.594 74.6006 163.813 74.9346 164.103 75.1801C164.397 75.4216 164.759 75.5423 165.19 75.5423ZM171.414 80.8307V68.0807H173.949V69.6382H174.064C174.177 69.3887 174.34 69.1351 174.553 68.8775C174.771 68.6159 175.052 68.3986 175.398 68.2256C175.748 68.0485 176.183 67.9599 176.702 67.9599C177.378 67.9599 178.002 68.137 178.574 68.4912C179.145 68.8413 179.602 69.3706 179.944 70.0789C180.286 70.7832 180.457 71.6666 180.457 72.7291C180.457 73.7634 180.29 74.6368 179.956 75.3491C179.626 76.0575 179.175 76.5948 178.604 76.961C178.036 77.3232 177.401 77.5043 176.696 77.5043C176.197 77.5043 175.773 77.4218 175.422 77.2568C175.076 77.0918 174.793 76.8845 174.571 76.635C174.35 76.3814 174.181 76.1259 174.064 75.8683H173.986V80.8307H171.414ZM173.931 72.717C173.931 73.2684 174.008 73.7493 174.161 74.1599C174.314 74.5704 174.535 74.8903 174.825 75.1197C175.115 75.3451 175.467 75.4578 175.881 75.4578C176.3 75.4578 176.654 75.3431 176.944 75.1137C177.234 74.8803 177.453 74.5583 177.602 74.1478C177.755 73.7332 177.831 73.2563 177.831 72.717C177.831 72.1818 177.757 71.7109 177.608 71.3044C177.459 70.8979 177.24 70.58 176.95 70.3506C176.66 70.1211 176.304 70.0064 175.881 70.0064C175.463 70.0064 175.109 70.1171 174.819 70.3385C174.533 70.5598 174.314 70.8738 174.161 71.2802C174.008 71.6867 173.931 72.1657 173.931 72.717ZM186.398 77.5345C185.444 77.5345 184.623 77.3413 183.935 76.955C183.25 76.5646 182.723 76.0132 182.353 75.3008C181.983 74.5845 181.797 73.7373 181.797 72.7593C181.797 71.8055 181.983 70.9683 182.353 70.2479C182.723 69.5275 183.244 68.9661 183.916 68.5636C184.593 68.1612 185.385 67.9599 186.295 67.9599C186.907 67.9599 187.476 68.0585 188.003 68.2557C188.535 68.4489 188.998 68.7407 189.392 69.1311C189.79 69.5215 190.1 70.0125 190.322 70.6041C190.543 71.1917 190.654 71.8799 190.654 72.6687V73.3751H182.824V71.7813H188.233C188.233 71.411 188.152 71.083 187.991 70.7973C187.83 70.5115 187.607 70.2882 187.321 70.1272C187.04 69.9622 186.712 69.8797 186.337 69.8797C185.947 69.8797 185.601 69.9702 185.299 70.1513C185.001 70.3284 184.768 70.5679 184.599 70.8697C184.43 71.1676 184.343 71.4996 184.339 71.8658V73.3811C184.339 73.8399 184.424 74.2363 184.593 74.5704C184.766 74.9044 185.009 75.162 185.323 75.3431C185.637 75.5242 186.009 75.6148 186.44 75.6148C186.726 75.6148 186.987 75.5745 187.225 75.494C187.462 75.4135 187.665 75.2928 187.834 75.1318C188.003 74.9708 188.132 74.7736 188.221 74.5402L190.599 74.6971C190.479 75.2686 190.231 75.7677 189.857 76.1943C189.487 76.6169 189.008 76.9469 188.42 77.1844C187.836 77.4178 187.162 77.5345 186.398 77.5345ZM192.332 77.3534V68.0807H194.825V69.6986H194.922C195.091 69.123 195.375 68.6884 195.773 68.3946C196.171 68.0968 196.63 67.9479 197.149 67.9479C197.278 67.9479 197.417 67.9559 197.566 67.972C197.715 67.9881 197.846 68.0102 197.958 68.0384V70.3204C197.838 70.2841 197.671 70.2519 197.457 70.2238C197.244 70.1956 197.049 70.1815 196.872 70.1815C196.493 70.1815 196.155 70.264 195.858 70.429C195.564 70.59 195.33 70.8154 195.157 71.1052C194.988 71.3949 194.904 71.729 194.904 72.1073V77.3534H192.332ZM199.729 77.5104C199.33 77.5104 198.988 77.3695 198.702 77.0878C198.421 76.802 198.28 76.4599 198.28 76.0615C198.28 75.6671 198.421 75.329 198.702 75.0473C198.988 74.7656 199.33 74.6247 199.729 74.6247C200.115 74.6247 200.453 74.7656 200.743 75.0473C201.033 75.329 201.178 75.6671 201.178 76.0615C201.178 76.3271 201.109 76.5706 200.972 76.792C200.839 77.0093 200.664 77.1844 200.447 77.3172C200.23 77.446 199.99 77.5104 199.729 77.5104ZM45.0746 98.3534V85.9898H47.6886V91.091H52.995V85.9898H55.603V98.3534H52.995V93.2461H47.6886V98.3534H45.0746ZM61.8995 98.5345C60.9618 98.5345 60.1508 98.3353 59.4666 97.9368C58.7865 97.5344 58.2612 96.975 57.891 96.2586C57.5207 95.5382 57.3356 94.7031 57.3356 93.7533C57.3356 92.7954 57.5207 91.9583 57.891 91.2419C58.2612 90.5215 58.7865 89.9621 59.4666 89.5636C60.1508 89.1612 60.9618 88.9599 61.8995 88.9599C62.8372 88.9599 63.6462 89.1612 64.3263 89.5636C65.0105 89.9621 65.5378 90.5215 65.908 91.2419C66.2783 91.9583 66.4634 92.7954 66.4634 93.7533C66.4634 94.7031 66.2783 95.5382 65.908 96.2586C65.5378 96.975 65.0105 97.5344 64.3263 97.9368C63.6462 98.3353 62.8372 98.5345 61.8995 98.5345ZM61.9116 96.5423C62.3382 96.5423 62.6944 96.4216 62.9801 96.1801C63.2659 95.9346 63.4812 95.6006 63.6261 95.178C63.775 94.7554 63.8494 94.2744 63.8494 93.7351C63.8494 93.1958 63.775 92.7149 63.6261 92.2923C63.4812 91.8697 63.2659 91.5357 62.9801 91.2902C62.6944 91.0447 62.3382 90.9219 61.9116 90.9219C61.4809 90.9219 61.1187 91.0447 60.8249 91.2902C60.5352 91.5357 60.3158 91.8697 60.1669 92.2923C60.022 92.7149 59.9496 93.1958 59.9496 93.7351C59.9496 94.2744 60.022 94.7554 60.1669 95.178C60.3158 95.6006 60.5352 95.9346 60.8249 96.1801C61.1187 96.4216 61.4809 96.5423 61.9116 96.5423ZM69.7324 98.3534L67.209 89.0807H69.8109L71.2477 95.3108H71.3322L72.8294 89.0807H75.383L76.9043 95.2746H76.9828L78.3954 89.0807H80.9913L78.4739 98.3534H75.7512L74.1575 92.5217H74.0428L72.449 98.3534H69.7324ZM90.4874 98.5345C89.5376 98.5345 88.7206 98.3333 88.0364 97.9308C87.3562 97.5243 86.833 96.9609 86.4668 96.2405C86.1046 95.5201 85.9235 94.691 85.9235 93.7533C85.9235 92.8034 86.1066 91.9703 86.4728 91.254C86.8431 90.5336 87.3683 89.9721 88.0485 89.5697C88.7286 89.1632 89.5376 88.9599 90.4753 88.9599C91.2843 88.9599 91.9926 89.1068 92.6003 89.4006C93.208 89.6944 93.689 90.1069 94.0431 90.6382C94.3973 91.1694 94.5925 91.7933 94.6287 92.5096H92.2019C92.1335 92.0468 91.9524 91.6745 91.6586 91.3928C91.3688 91.1071 90.9885 90.9642 90.5176 90.9642C90.1191 90.9642 89.771 91.0729 89.4732 91.2902C89.1794 91.5035 88.95 91.8154 88.785 92.2259C88.62 92.6364 88.5375 93.1335 88.5375 93.717C88.5375 94.3086 88.618 94.8117 88.7789 95.2263C88.944 95.6408 89.1754 95.9567 89.4732 96.1741C89.771 96.3914 90.1191 96.5001 90.5176 96.5001C90.8114 96.5001 91.075 96.4397 91.3084 96.3189C91.5459 96.1982 91.7411 96.0231 91.894 95.7937C92.051 95.5603 92.1536 95.2806 92.2019 94.9546H94.6287C94.5885 95.6629 94.3953 96.2868 94.0492 96.826C93.7071 97.3613 93.2342 97.7799 92.6305 98.0817C92.0268 98.3836 91.3124 98.5345 90.4874 98.5345ZM98.9195 98.5285C98.3279 98.5285 97.8006 98.4258 97.3378 98.2206C96.875 98.0113 96.5087 97.7034 96.2391 97.2969C95.9735 96.8864 95.8406 96.3753 95.8406 95.7635C95.8406 95.2484 95.9352 94.8158 96.1244 94.4656C96.3135 94.1155 96.5711 93.8337 96.8971 93.6204C97.2231 93.4071 97.5934 93.2461 98.0079 93.1375C98.4265 93.0288 98.8651 92.9524 99.324 92.9081C99.8633 92.8517 100.298 92.7994 100.628 92.7511C100.958 92.6988 101.197 92.6223 101.346 92.5217C101.495 92.4211 101.57 92.2722 101.57 92.075V92.0388C101.57 91.6564 101.449 91.3606 101.207 91.1513C100.97 90.9421 100.632 90.8374 100.193 90.8374C99.7304 90.8374 99.3622 90.94 99.0885 91.1453C98.8148 91.3465 98.6337 91.6001 98.5452 91.906L96.1666 91.7128C96.2874 91.1493 96.5248 90.6623 96.879 90.2518C97.2332 89.8373 97.69 89.5193 98.2494 89.298C98.8128 89.0726 99.4648 88.9599 100.205 88.9599C100.72 88.9599 101.214 89.0203 101.684 89.141C102.159 89.2618 102.58 89.4489 102.946 89.7025C103.316 89.956 103.608 90.282 103.821 90.6805C104.035 91.0749 104.141 91.5478 104.141 92.0991V98.3534H101.703V97.0675H101.63C101.481 97.3573 101.282 97.6129 101.032 97.8342C100.783 98.0515 100.483 98.2226 100.133 98.3474C99.7828 98.4681 99.3783 98.5285 98.9195 98.5285ZM99.656 96.7536C100.034 96.7536 100.368 96.6792 100.658 96.5302C100.948 96.3773 101.175 96.172 101.34 95.9145C101.505 95.6569 101.588 95.3651 101.588 95.0391V94.0551C101.507 94.1074 101.397 94.1557 101.256 94.2C101.119 94.2402 100.964 94.2785 100.791 94.3147C100.618 94.3469 100.445 94.3771 100.272 94.4052C100.099 94.4294 99.9417 94.4515 99.8009 94.4716C99.499 94.5159 99.2354 94.5863 99.01 94.6829C98.7847 94.7795 98.6096 94.9103 98.4848 95.0753C98.3601 95.2363 98.2977 95.4376 98.2977 95.679C98.2977 96.0292 98.4244 96.2968 98.678 96.4819C98.9356 96.6631 99.2616 96.7536 99.656 96.7536ZM108.708 92.9926V98.3534H106.137V89.0807H108.588V90.7167H108.696C108.902 90.1774 109.246 89.7508 109.729 89.4368C110.212 89.1189 110.797 88.9599 111.485 88.9599C112.129 88.9599 112.691 89.1008 113.17 89.3825C113.649 89.6642 114.021 90.0667 114.286 90.5899C114.552 91.1091 114.685 91.7289 114.685 92.4493V98.3534H112.113V92.9081C112.117 92.3406 111.972 91.8979 111.679 91.58C111.385 91.258 110.98 91.097 110.465 91.097C110.119 91.097 109.813 91.1715 109.547 91.3204C109.286 91.4693 109.081 91.6866 108.932 91.9724C108.787 92.2541 108.712 92.5942 108.708 92.9926ZM123.309 85.9898V98.3534H120.695V85.9898H123.309ZM131.917 92.9926V98.3534H129.346V85.9898H131.845V90.7167H131.954C132.163 90.1693 132.501 89.7407 132.968 89.4308C133.435 89.1169 134.02 88.9599 134.725 88.9599C135.368 88.9599 135.93 89.1008 136.409 89.3825C136.892 89.6602 137.266 90.0607 137.532 90.5839C137.801 91.103 137.934 91.7248 137.93 92.4493V98.3534H135.358V92.9081C135.362 92.3366 135.218 91.8919 134.924 91.5739C134.634 91.256 134.227 91.097 133.704 91.097C133.354 91.097 133.044 91.1715 132.775 91.3204C132.509 91.4693 132.3 91.6866 132.147 91.9724C131.998 92.2541 131.921 92.5942 131.917 92.9926ZM144.18 98.5345C143.226 98.5345 142.405 98.3413 141.717 97.955C141.033 97.5646 140.505 97.0132 140.135 96.3008C139.765 95.5845 139.58 94.7373 139.58 93.7593C139.58 92.8055 139.765 91.9683 140.135 91.2479C140.505 90.5275 141.027 89.9661 141.699 89.5636C142.375 89.1612 143.168 88.9599 144.077 88.9599C144.689 88.9599 145.258 89.0585 145.786 89.2557C146.317 89.4489 146.78 89.7407 147.174 90.1311C147.573 90.5215 147.883 91.0125 148.104 91.6041C148.325 92.1917 148.436 92.8799 148.436 93.6687V94.3751H140.606V92.7813H146.015C146.015 92.411 145.935 92.083 145.774 91.7973C145.613 91.5115 145.389 91.2882 145.104 91.1272C144.822 90.9622 144.494 90.8797 144.119 90.8797C143.729 90.8797 143.383 90.9702 143.081 91.1513C142.783 91.3284 142.55 91.5679 142.381 91.8697C142.212 92.1676 142.125 92.4996 142.121 92.8658V94.3811C142.121 94.8399 142.206 95.2363 142.375 95.5704C142.548 95.9044 142.791 96.162 143.105 96.3431C143.419 96.5242 143.791 96.6148 144.222 96.6148C144.508 96.6148 144.769 96.5745 145.007 96.494C145.244 96.4135 145.448 96.2928 145.617 96.1318C145.786 95.9708 145.914 95.7736 146.003 95.5402L148.382 95.6971C148.261 96.2686 148.013 96.7677 147.639 97.1943C147.269 97.6169 146.79 97.9469 146.202 98.1844C145.619 98.4178 144.945 98.5345 144.18 98.5345ZM152.686 85.9898V98.3534H150.114V85.9898H152.686ZM154.746 101.831V89.0807H157.282V90.6382H157.396C157.509 90.3887 157.672 90.1351 157.885 89.8775C158.103 89.6159 158.384 89.3986 158.73 89.2256C159.081 89.0485 159.515 88.9599 160.034 88.9599C160.71 88.9599 161.334 89.137 161.906 89.4912C162.477 89.8413 162.934 90.3706 163.276 91.0789C163.618 91.7832 163.789 92.6666 163.789 93.7291C163.789 94.7634 163.622 95.6368 163.288 96.3491C162.958 97.0575 162.507 97.5948 161.936 97.961C161.369 98.3232 160.733 98.5043 160.028 98.5043C159.529 98.5043 159.105 98.4218 158.755 98.2568C158.408 98.0918 158.125 97.8845 157.903 97.635C157.682 97.3814 157.513 97.1259 157.396 96.8683H157.318V101.831H154.746ZM157.263 93.717C157.263 94.2684 157.34 94.7493 157.493 95.1599C157.646 95.5704 157.867 95.8903 158.157 96.1197C158.447 96.3451 158.799 96.4578 159.213 96.4578C159.632 96.4578 159.986 96.3431 160.276 96.1137C160.566 95.8803 160.785 95.5583 160.934 95.1478C161.087 94.7332 161.163 94.2563 161.163 93.717C161.163 93.1818 161.089 92.7109 160.94 92.3044C160.791 91.8979 160.572 91.58 160.282 91.3506C159.992 91.1211 159.636 91.0064 159.213 91.0064C158.795 91.0064 158.441 91.1171 158.151 91.3385C157.865 91.5598 157.646 91.8738 157.493 92.2802C157.34 92.6867 157.263 93.1657 157.263 93.717ZM171.026 101.831C170.7 101.831 170.394 101.805 170.108 101.752C169.827 101.704 169.593 101.642 169.408 101.565L169.988 99.6453C170.29 99.7379 170.561 99.7882 170.803 99.7962C171.048 99.8043 171.26 99.7479 171.437 99.6272C171.618 99.5064 171.765 99.3012 171.877 99.0114L172.028 98.619L168.702 89.0807H171.406L173.326 95.8903H173.423L175.361 89.0807H178.083L174.479 99.3555C174.306 99.8546 174.071 100.289 173.773 100.66C173.479 101.034 173.107 101.322 172.656 101.523C172.205 101.728 171.662 101.831 171.026 101.831ZM183.29 98.5345C182.352 98.5345 181.541 98.3353 180.857 97.9368C180.177 97.5344 179.652 96.975 179.282 96.2586C178.911 95.5382 178.726 94.7031 178.726 93.7533C178.726 92.7954 178.911 91.9583 179.282 91.2419C179.652 90.5215 180.177 89.9621 180.857 89.5636C181.541 89.1612 182.352 88.9599 183.29 88.9599C184.228 88.9599 185.037 89.1612 185.717 89.5636C186.401 89.9621 186.928 90.5215 187.299 91.2419C187.669 91.9583 187.854 92.7954 187.854 93.7533C187.854 94.7031 187.669 95.5382 187.299 96.2586C186.928 96.975 186.401 97.5344 185.717 97.9368C185.037 98.3353 184.228 98.5345 183.29 98.5345ZM183.302 96.5423C183.729 96.5423 184.085 96.4216 184.371 96.1801C184.656 95.9346 184.872 95.6006 185.017 95.178C185.166 94.7554 185.24 94.2744 185.24 93.7351C185.24 93.1958 185.166 92.7149 185.017 92.2923C184.872 91.8697 184.656 91.5357 184.371 91.2902C184.085 91.0447 183.729 90.9219 183.302 90.9219C182.872 90.9219 182.509 91.0447 182.216 91.2902C181.926 91.5357 181.706 91.8697 181.558 92.2923C181.413 92.7149 181.34 93.1958 181.34 93.7351C181.34 94.2744 181.413 94.7554 181.558 95.178C181.706 95.6006 181.926 95.9346 182.216 96.1801C182.509 96.4216 182.872 96.5423 183.302 96.5423ZM195.473 94.4052V89.0807H198.044V98.3534H195.575V96.6691H195.479C195.269 97.2124 194.921 97.6491 194.434 97.9791C193.951 98.3091 193.362 98.4741 192.665 98.4741C192.046 98.4741 191.5 98.3333 191.029 98.0515C190.559 97.7698 190.19 97.3694 189.925 96.8502C189.663 96.331 189.53 95.7092 189.526 94.9848V89.0807H192.098V94.526C192.102 95.0733 192.249 95.506 192.539 95.8239C192.828 96.1419 193.217 96.3008 193.704 96.3008C194.014 96.3008 194.304 96.2304 194.573 96.0895C194.843 95.9447 195.06 95.7314 195.225 95.4496C195.394 95.1679 195.477 94.8198 195.473 94.4052ZM202.311 94.6467V94.4415C202.315 93.7372 202.377 93.1757 202.498 92.7572C202.623 92.3386 202.804 92.0005 203.041 91.743C203.279 91.4854 203.565 91.2519 203.899 91.0427C204.148 90.8817 204.372 90.7147 204.569 90.5416C204.766 90.3685 204.923 90.1774 205.04 89.9681C205.156 89.7548 205.215 89.5173 205.215 89.2557C205.215 88.978 205.148 88.7345 205.016 88.5253C204.883 88.316 204.704 88.155 204.478 88.0423C204.257 87.9296 204.011 87.8733 203.742 87.8733C203.48 87.8733 203.233 87.9316 202.999 88.0484C202.766 88.161 202.575 88.3301 202.426 88.5555C202.277 88.7768 202.196 89.0525 202.184 89.3825H199.721C199.741 88.5776 199.934 87.9135 200.301 87.3903C200.667 86.8631 201.152 86.4707 201.756 86.2131C202.359 85.9515 203.025 85.8207 203.754 85.8207C204.555 85.8207 205.263 85.9535 205.879 86.2192C206.495 86.4808 206.978 86.8611 207.328 87.3601C207.678 87.8592 207.853 88.4609 207.853 89.1652C207.853 89.6361 207.774 90.0546 207.617 90.4209C207.465 90.7831 207.249 91.1051 206.972 91.3868C206.694 91.6645 206.366 91.916 205.987 92.1414C205.67 92.3305 205.408 92.5278 205.203 92.733C205.001 92.9383 204.851 93.1757 204.75 93.4454C204.653 93.715 204.603 94.047 204.599 94.4415V94.6467H202.311ZM203.506 98.5104C203.104 98.5104 202.76 98.3695 202.474 98.0878C202.192 97.802 202.053 97.4599 202.057 97.0615C202.053 96.6671 202.192 96.329 202.474 96.0473C202.76 95.7656 203.104 95.6247 203.506 95.6247C203.889 95.6247 204.225 95.7656 204.514 96.0473C204.804 96.329 204.951 96.6671 204.955 97.0615C204.951 97.3271 204.881 97.5706 204.744 97.792C204.611 98.0093 204.436 98.1844 204.219 98.3172C204.001 98.446 203.764 98.5104 203.506 98.5104Z" fill="white"/>
<path d="M46.4961 28.8879L44.207 20.8879H46.0547L47.3789 26.4465H47.4453L48.9063 20.8879H50.4883L51.9453 26.4583H52.0156L53.3398 20.8879H55.1875L52.8984 28.8879H51.25L49.7266 23.6575H49.6641L48.1445 28.8879H46.4961ZM58.1514 29.0051C57.5342 29.0051 57.0029 28.8801 56.5576 28.6301C56.1149 28.3775 55.7738 28.0208 55.5342 27.5598C55.2946 27.0963 55.1748 26.5481 55.1748 25.9153C55.1748 25.2981 55.2946 24.7564 55.5342 24.2903C55.7738 23.8241 56.111 23.4609 56.5459 23.2004C56.9834 22.94 57.4964 22.8098 58.085 22.8098C58.4808 22.8098 58.8493 22.8736 59.1904 23.0012C59.5342 23.1262 59.8337 23.315 60.0889 23.5676C60.3467 23.8202 60.5472 24.1379 60.6904 24.5208C60.8337 24.901 60.9053 25.3463 60.9053 25.8567V26.3137H55.8389V25.2825H59.3389C59.3389 25.0429 59.2868 24.8306 59.1826 24.6458C59.0785 24.4609 58.9339 24.3163 58.749 24.2122C58.5667 24.1054 58.3545 24.052 58.1123 24.052C57.8597 24.052 57.6357 24.1106 57.4404 24.2278C57.2477 24.3424 57.0967 24.4973 56.9873 24.6926C56.8779 24.8853 56.8219 25.1002 56.8193 25.3372V26.3176C56.8193 26.6145 56.874 26.871 56.9834 27.0872C57.0954 27.3033 57.2529 27.47 57.4561 27.5872C57.6592 27.7043 57.9001 27.7629 58.1787 27.7629C58.3636 27.7629 58.5329 27.7369 58.6865 27.6848C58.8402 27.6327 58.9717 27.5546 59.0811 27.4504C59.1904 27.3463 59.2738 27.2187 59.3311 27.0676L60.8701 27.1692C60.792 27.539 60.6318 27.8619 60.3896 28.1379C60.1501 28.4114 59.8402 28.6249 59.46 28.7786C59.0824 28.9296 58.6462 29.0051 58.1514 29.0051ZM63.6553 20.8879V28.8879H61.9912V20.8879H63.6553ZM67.6992 29.0051C67.0846 29.0051 66.556 28.8749 66.1133 28.6145C65.6732 28.3515 65.3346 27.9869 65.0977 27.5208C64.8633 27.0546 64.7461 26.5181 64.7461 25.9114C64.7461 25.2968 64.8646 24.7577 65.1016 24.2942C65.3411 23.828 65.681 23.4648 66.1211 23.2043C66.5612 22.9413 67.0846 22.8098 67.6914 22.8098C68.2148 22.8098 68.6732 22.9049 69.0664 23.095C69.4596 23.2851 69.7708 23.552 70 23.8958C70.2292 24.2395 70.3555 24.6431 70.3789 25.1067H68.8086C68.7643 24.8072 68.6471 24.5663 68.457 24.384C68.2695 24.1991 68.0234 24.1067 67.7188 24.1067C67.4609 24.1067 67.2357 24.177 67.043 24.3176C66.8529 24.4556 66.7044 24.6575 66.5977 24.9231C66.4909 25.1887 66.4375 25.5103 66.4375 25.8879C66.4375 26.2708 66.4896 26.5963 66.5938 26.8645C66.7005 27.1327 66.8503 27.3372 67.043 27.4778C67.2357 27.6184 67.4609 27.6887 67.7188 27.6887C67.9089 27.6887 68.0794 27.6497 68.2305 27.5715C68.3841 27.4934 68.5104 27.3801 68.6094 27.2317C68.7109 27.0806 68.7773 26.8997 68.8086 26.6887H70.3789C70.3529 27.1471 70.2279 27.5507 70.0039 27.8997C69.7826 28.246 69.4766 28.5168 69.0859 28.7122C68.6953 28.9075 68.2331 29.0051 67.6992 29.0051ZM74.1553 29.0051C73.5485 29.0051 73.0238 28.8762 72.5811 28.6184C72.141 28.358 71.8011 27.996 71.5615 27.5325C71.3219 27.0663 71.2021 26.526 71.2021 25.9114C71.2021 25.2916 71.3219 24.7499 71.5615 24.2864C71.8011 23.8202 72.141 23.4583 72.5811 23.2004C73.0238 22.94 73.5485 22.8098 74.1553 22.8098C74.762 22.8098 75.2855 22.94 75.7256 23.2004C76.1683 23.4583 76.5094 23.8202 76.749 24.2864C76.9886 24.7499 77.1084 25.2916 77.1084 25.9114C77.1084 26.526 76.9886 27.0663 76.749 27.5325C76.5094 27.996 76.1683 28.358 75.7256 28.6184C75.2855 28.8762 74.762 29.0051 74.1553 29.0051ZM74.1631 27.7161C74.4391 27.7161 74.6696 27.6379 74.8545 27.4817C75.0394 27.3228 75.1787 27.1067 75.2725 26.8333C75.3688 26.5598 75.417 26.2486 75.417 25.8997C75.417 25.5507 75.3688 25.2395 75.2725 24.9661C75.1787 24.6926 75.0394 24.4765 74.8545 24.3176C74.6696 24.1588 74.4391 24.0793 74.1631 24.0793C73.8844 24.0793 73.6501 24.1588 73.46 24.3176C73.2725 24.4765 73.1305 24.6926 73.0342 24.9661C72.9404 25.2395 72.8936 25.5507 72.8936 25.8997C72.8936 26.2486 72.9404 26.5598 73.0342 26.8333C73.1305 27.1067 73.2725 27.3228 73.46 27.4817C73.6501 27.6379 73.8844 27.7161 74.1631 27.7161ZM78.1904 28.8879V22.8879H79.7764V23.9465H79.8467C79.9717 23.595 80.18 23.3176 80.4717 23.1145C80.7633 22.9114 81.1123 22.8098 81.5186 22.8098C81.93 22.8098 82.2803 22.9127 82.5693 23.1184C82.8584 23.3215 83.0511 23.5976 83.1475 23.9465H83.21C83.3324 23.6028 83.5537 23.328 83.874 23.1223C84.1969 22.914 84.5785 22.8098 85.0186 22.8098C85.5785 22.8098 86.0329 22.9882 86.3818 23.345C86.7334 23.6991 86.9092 24.2017 86.9092 24.8528V28.8879H85.249V25.1809C85.249 24.8476 85.1605 24.5976 84.9834 24.4309C84.8063 24.2642 84.585 24.1809 84.3193 24.1809C84.0173 24.1809 83.7816 24.2773 83.6123 24.47C83.443 24.6601 83.3584 24.9114 83.3584 25.2239V28.8879H81.7451V25.1458C81.7451 24.8515 81.6605 24.6171 81.4912 24.4426C81.3245 24.2681 81.1045 24.1809 80.8311 24.1809C80.6462 24.1809 80.4795 24.2278 80.3311 24.3215C80.1852 24.4127 80.0693 24.5416 79.9834 24.7083C79.8975 24.8723 79.8545 25.065 79.8545 25.2864V28.8879H78.1904ZM90.958 29.0051C90.3408 29.0051 89.8096 28.8801 89.3643 28.6301C88.9215 28.3775 88.5804 28.0208 88.3408 27.5598C88.1012 27.0963 87.9814 26.5481 87.9814 25.9153C87.9814 25.2981 88.1012 24.7564 88.3408 24.2903C88.5804 23.8241 88.9176 23.4609 89.3525 23.2004C89.79 22.94 90.3031 22.8098 90.8916 22.8098C91.2874 22.8098 91.6559 22.8736 91.9971 23.0012C92.3408 23.1262 92.6403 23.315 92.8955 23.5676C93.1533 23.8202 93.3538 24.1379 93.4971 24.5208C93.6403 24.901 93.7119 25.3463 93.7119 25.8567V26.3137H88.6455V25.2825H92.1455C92.1455 25.0429 92.0934 24.8306 91.9893 24.6458C91.8851 24.4609 91.7406 24.3163 91.5557 24.2122C91.3734 24.1054 91.1611 24.052 90.9189 24.052C90.6663 24.052 90.4424 24.1106 90.2471 24.2278C90.0544 24.3424 89.9033 24.4973 89.7939 24.6926C89.6846 24.8853 89.6286 25.1002 89.626 25.3372V26.3176C89.626 26.6145 89.6807 26.871 89.79 27.0872C89.902 27.3033 90.0596 27.47 90.2627 27.5872C90.4658 27.7043 90.7067 27.7629 90.9854 27.7629C91.1702 27.7629 91.3395 27.7369 91.4932 27.6848C91.6468 27.6327 91.7783 27.5546 91.8877 27.4504C91.9971 27.3463 92.0804 27.2187 92.1377 27.0676L93.6768 27.1692C93.5986 27.539 93.4385 27.8619 93.1963 28.1379C92.9567 28.4114 92.6468 28.6249 92.2666 28.7786C91.889 28.9296 91.4528 29.0051 90.958 29.0051ZM100.535 22.8879V24.1379H96.9219V22.8879H100.535ZM97.7422 21.4504H99.4063V27.0442C99.4063 27.1978 99.4297 27.3176 99.4766 27.4036C99.5234 27.4869 99.5885 27.5455 99.6719 27.5793C99.7578 27.6132 99.8568 27.6301 99.9688 27.6301C100.047 27.6301 100.125 27.6236 100.203 27.6106C100.281 27.595 100.341 27.5833 100.383 27.5754L100.645 28.8137C100.561 28.8398 100.444 28.8697 100.293 28.9036C100.142 28.94 99.9583 28.9622 99.7422 28.97C99.3411 28.9856 98.9896 28.9322 98.6875 28.8098C98.388 28.6874 98.1549 28.4973 97.9883 28.2395C97.8216 27.9817 97.7396 27.6562 97.7422 27.2629V21.4504ZM104.266 29.0051C103.659 29.0051 103.134 28.8762 102.691 28.6184C102.251 28.358 101.911 27.996 101.672 27.5325C101.432 27.0663 101.313 26.526 101.313 25.9114C101.313 25.2916 101.432 24.7499 101.672 24.2864C101.911 23.8202 102.251 23.4583 102.691 23.2004C103.134 22.94 103.659 22.8098 104.266 22.8098C104.872 22.8098 105.396 22.94 105.836 23.2004C106.279 23.4583 106.62 23.8202 106.859 24.2864C107.099 24.7499 107.219 25.2916 107.219 25.9114C107.219 26.526 107.099 27.0663 106.859 27.5325C106.62 27.996 106.279 28.358 105.836 28.6184C105.396 28.8762 104.872 29.0051 104.266 29.0051ZM104.273 27.7161C104.549 27.7161 104.78 27.6379 104.965 27.4817C105.15 27.3228 105.289 27.1067 105.383 26.8333C105.479 26.5598 105.527 26.2486 105.527 25.8997C105.527 25.5507 105.479 25.2395 105.383 24.9661C105.289 24.6926 105.15 24.4765 104.965 24.3176C104.78 24.1588 104.549 24.0793 104.273 24.0793C103.995 24.0793 103.76 24.1588 103.57 24.3176C103.383 24.4765 103.241 24.6926 103.145 24.9661C103.051 25.2395 103.004 25.5507 103.004 25.8997C103.004 26.2486 103.051 26.5598 103.145 26.8333C103.241 27.1067 103.383 27.3228 103.57 27.4817C103.76 27.6379 103.995 27.7161 104.273 27.7161ZM110.847 28.8879V22.8879H112.433V23.9465H112.503C112.628 23.595 112.836 23.3176 113.128 23.1145C113.42 22.9114 113.769 22.8098 114.175 22.8098C114.586 22.8098 114.937 22.9127 115.226 23.1184C115.515 23.3215 115.707 23.5976 115.804 23.9465H115.866C115.989 23.6028 116.21 23.328 116.53 23.1223C116.853 22.914 117.235 22.8098 117.675 22.8098C118.235 22.8098 118.689 22.9882 119.038 23.345C119.39 23.6991 119.565 24.2017 119.565 24.8528V28.8879H117.905V25.1809C117.905 24.8476 117.817 24.5976 117.64 24.4309C117.463 24.2642 117.241 24.1809 116.976 24.1809C116.674 24.1809 116.438 24.2773 116.269 24.47C116.099 24.6601 116.015 24.9114 116.015 25.2239V28.8879H114.401V25.1458C114.401 24.8515 114.317 24.6171 114.147 24.4426C113.981 24.2681 113.761 24.1809 113.487 24.1809C113.302 24.1809 113.136 24.2278 112.987 24.3215C112.841 24.4127 112.726 24.5416 112.64 24.7083C112.554 24.8723 112.511 25.065 112.511 25.2864V28.8879H110.847ZM121.692 31.1379C121.481 31.1379 121.284 31.121 121.099 31.0872C120.916 31.0559 120.765 31.0155 120.646 30.9661L121.021 29.7239C121.216 29.7838 121.392 29.8163 121.548 29.8215C121.707 29.8267 121.843 29.7903 121.958 29.7122C122.075 29.634 122.17 29.5012 122.243 29.3137L122.341 29.0598L120.188 22.8879H121.938L123.181 27.2942H123.243L124.497 22.8879H126.259L123.927 29.5364C123.815 29.8593 123.662 30.1405 123.47 30.3801C123.28 30.6223 123.039 30.8085 122.747 30.9387C122.455 31.0715 122.104 31.1379 121.692 31.1379ZM129.656 31.1379V22.8879H131.297V23.8958H131.371C131.444 23.7343 131.549 23.5702 131.688 23.4036C131.828 23.2343 132.01 23.0937 132.234 22.9817C132.461 22.8671 132.742 22.8098 133.078 22.8098C133.516 22.8098 133.919 22.9244 134.289 23.1536C134.659 23.3801 134.954 23.7226 135.176 24.1809C135.397 24.6366 135.508 25.2083 135.508 25.8958C135.508 26.565 135.4 27.1301 135.184 27.5911C134.97 28.0494 134.678 28.3971 134.309 28.634C133.941 28.8684 133.53 28.9856 133.074 28.9856C132.751 28.9856 132.477 28.9322 132.25 28.8254C132.026 28.7187 131.842 28.5846 131.699 28.4231C131.556 28.259 131.447 28.0937 131.371 27.927H131.32V31.1379H129.656ZM131.285 25.8879C131.285 26.2447 131.335 26.5559 131.434 26.8215C131.533 27.0872 131.676 27.2942 131.863 27.4426C132.051 27.5885 132.279 27.6614 132.547 27.6614C132.818 27.6614 133.047 27.5872 133.234 27.4387C133.422 27.2877 133.564 27.0793 133.66 26.8137C133.759 26.5455 133.809 26.2369 133.809 25.8879C133.809 25.5416 133.76 25.2369 133.664 24.9739C133.568 24.7109 133.426 24.5051 133.238 24.3567C133.051 24.2083 132.82 24.134 132.547 24.134C132.276 24.134 132.047 24.2056 131.859 24.3489C131.674 24.4921 131.533 24.6952 131.434 24.9583C131.335 25.2213 131.285 25.5312 131.285 25.8879ZM139.328 29.0051C138.721 29.0051 138.197 28.8762 137.754 28.6184C137.314 28.358 136.974 27.996 136.734 27.5325C136.495 27.0663 136.375 26.526 136.375 25.9114C136.375 25.2916 136.495 24.7499 136.734 24.2864C136.974 23.8202 137.314 23.4583 137.754 23.2004C138.197 22.94 138.721 22.8098 139.328 22.8098C139.935 22.8098 140.458 22.94 140.898 23.2004C141.341 23.4583 141.682 23.8202 141.922 24.2864C142.161 24.7499 142.281 25.2916 142.281 25.9114C142.281 26.526 142.161 27.0663 141.922 27.5325C141.682 27.996 141.341 28.358 140.898 28.6184C140.458 28.8762 139.935 29.0051 139.328 29.0051ZM139.336 27.7161C139.612 27.7161 139.842 27.6379 140.027 27.4817C140.212 27.3228 140.352 27.1067 140.445 26.8333C140.542 26.5598 140.59 26.2486 140.59 25.8997C140.59 25.5507 140.542 25.2395 140.445 24.9661C140.352 24.6926 140.212 24.4765 140.027 24.3176C139.842 24.1588 139.612 24.0793 139.336 24.0793C139.057 24.0793 138.823 24.1588 138.633 24.3176C138.445 24.4765 138.303 24.6926 138.207 24.9661C138.113 25.2395 138.066 25.5507 138.066 25.8997C138.066 26.2486 138.113 26.5598 138.207 26.8333C138.303 27.1067 138.445 27.3228 138.633 27.4817C138.823 27.6379 139.057 27.7161 139.336 27.7161ZM143.363 28.8879V22.8879H144.977V23.9348H145.039C145.148 23.5624 145.332 23.2812 145.59 23.0911C145.848 22.8984 146.145 22.802 146.48 22.802C146.564 22.802 146.654 22.8072 146.75 22.8176C146.846 22.828 146.931 22.8424 147.004 22.8606V24.3372C146.926 24.3137 146.818 24.2929 146.68 24.2747C146.542 24.2564 146.415 24.2473 146.301 24.2473C146.056 24.2473 145.837 24.3007 145.645 24.4075C145.454 24.5116 145.303 24.6575 145.191 24.845C145.082 25.0325 145.027 25.2486 145.027 25.4934V28.8879H143.363ZM151.356 22.8879V24.1379H147.743V22.8879H151.356ZM148.563 21.4504H150.228V27.0442C150.228 27.1978 150.251 27.3176 150.298 27.4036C150.345 27.4869 150.41 27.5455 150.493 27.5793C150.579 27.6132 150.678 27.6301 150.79 27.6301C150.868 27.6301 150.946 27.6236 151.024 27.6106C151.103 27.595 151.162 27.5833 151.204 27.5754L151.466 28.8137C151.382 28.8398 151.265 28.8697 151.114 28.9036C150.963 28.94 150.78 28.9622 150.563 28.97C150.162 28.9856 149.811 28.9322 149.509 28.8098C149.209 28.6874 148.976 28.4973 148.81 28.2395C148.643 27.9817 148.561 27.6562 148.563 27.2629V21.4504ZM155.667 22.8879V24.1379H151.964V22.8879H155.667ZM152.812 28.8879V22.4543C152.812 22.0194 152.896 21.6588 153.065 21.3723C153.237 21.0859 153.472 20.871 153.769 20.7278C154.065 20.5846 154.403 20.5129 154.78 20.5129C155.035 20.5129 155.269 20.5325 155.479 20.5715C155.693 20.6106 155.852 20.6458 155.956 20.677L155.659 21.927C155.594 21.9062 155.513 21.8866 155.417 21.8684C155.323 21.8502 155.227 21.8411 155.128 21.8411C154.883 21.8411 154.713 21.8984 154.616 22.0129C154.52 22.1249 154.472 22.2825 154.472 22.4856V28.8879H152.812ZM159.18 29.0051C158.573 29.0051 158.048 28.8762 157.605 28.6184C157.165 28.358 156.826 27.996 156.586 27.5325C156.346 27.0663 156.227 26.526 156.227 25.9114C156.227 25.2916 156.346 24.7499 156.586 24.2864C156.826 23.8202 157.165 23.4583 157.605 23.2004C158.048 22.94 158.573 22.8098 159.18 22.8098C159.786 22.8098 160.31 22.94 160.75 23.2004C161.193 23.4583 161.534 23.8202 161.773 24.2864C162.013 24.7499 162.133 25.2916 162.133 25.9114C162.133 26.526 162.013 27.0663 161.773 27.5325C161.534 27.996 161.193 28.358 160.75 28.6184C160.31 28.8762 159.786 29.0051 159.18 29.0051ZM159.187 27.7161C159.464 27.7161 159.694 27.6379 159.879 27.4817C160.064 27.3228 160.203 27.1067 160.297 26.8333C160.393 26.5598 160.441 26.2486 160.441 25.8997C160.441 25.5507 160.393 25.2395 160.297 24.9661C160.203 24.6926 160.064 24.4765 159.879 24.3176C159.694 24.1588 159.464 24.0793 159.187 24.0793C158.909 24.0793 158.674 24.1588 158.484 24.3176C158.297 24.4765 158.155 24.6926 158.059 24.9661C157.965 25.2395 157.918 25.5507 157.918 25.8997C157.918 26.2486 157.965 26.5598 158.059 26.8333C158.155 27.1067 158.297 27.3228 158.484 27.4817C158.674 27.6379 158.909 27.7161 159.187 27.7161ZM164.879 20.8879V28.8879H163.215V20.8879H164.879ZM166.212 28.8879V22.8879H167.876V28.8879H166.212ZM167.048 22.1145C166.8 22.1145 166.588 22.0325 166.411 21.8684C166.237 21.7017 166.149 21.5025 166.149 21.2708C166.149 21.0416 166.237 20.845 166.411 20.6809C166.588 20.5142 166.8 20.4309 167.048 20.4309C167.295 20.4309 167.506 20.5142 167.681 20.6809C167.858 20.845 167.946 21.0416 167.946 21.2708C167.946 21.5025 167.858 21.7017 167.681 21.8684C167.506 22.0325 167.295 22.1145 167.048 22.1145ZM171.92 29.0051C171.313 29.0051 170.788 28.8762 170.346 28.6184C169.906 28.358 169.566 27.996 169.326 27.5325C169.087 27.0663 168.967 26.526 168.967 25.9114C168.967 25.2916 169.087 24.7499 169.326 24.2864C169.566 23.8202 169.906 23.4583 170.346 23.2004C170.788 22.94 171.313 22.8098 171.92 22.8098C172.527 22.8098 173.05 22.94 173.49 23.2004C173.933 23.4583 174.274 23.8202 174.514 24.2864C174.753 24.7499 174.873 25.2916 174.873 25.9114C174.873 26.526 174.753 27.0663 174.514 27.5325C174.274 27.996 173.933 28.358 173.49 28.6184C173.05 28.8762 172.527 29.0051 171.92 29.0051ZM171.928 27.7161C172.204 27.7161 172.434 27.6379 172.619 27.4817C172.804 27.3228 172.943 27.1067 173.037 26.8333C173.133 26.5598 173.182 26.2486 173.182 25.8997C173.182 25.5507 173.133 25.2395 173.037 24.9661C172.943 24.6926 172.804 24.4765 172.619 24.3176C172.434 24.1588 172.204 24.0793 171.928 24.0793C171.649 24.0793 171.415 24.1588 171.225 24.3176C171.037 24.4765 170.895 24.6926 170.799 24.9661C170.705 25.2395 170.658 25.5507 170.658 25.8997C170.658 26.2486 170.705 26.5598 170.799 26.8333C170.895 27.1067 171.037 27.3228 171.225 27.4817C171.415 27.6379 171.649 27.7161 171.928 27.7161Z" fill="#545454"/>
<path d="M248.863 87.7777V82.4027L270.363 72.9354V79.1197L255.643 85.0291L255.842 84.7085V85.472L255.643 85.1513L270.363 91.0607V97.2451L248.863 87.7777ZM276.945 100.528V69.2553H283.556V82.1584H296.979V69.2553H303.575V100.528H296.979V87.6098H283.556V100.528H276.945ZM322.449 69.2553V100.528H315.837V75.5313H315.654L308.492 80.0206V74.157L316.234 69.2553H322.449ZM352.71 87.7777L331.21 97.2451V91.0607L345.93 85.1513L345.732 85.472V84.7085L345.93 85.0291L331.21 79.1197V72.9354L352.71 82.4027V87.7777ZM317.383 152.528V121.255H323.995V134.158H337.417V121.255H344.014V152.528H337.417V139.61H323.995V152.528H317.383ZM360.032 152.986C357.619 152.986 355.543 152.498 353.802 151.52C352.071 150.533 350.738 149.138 349.801 147.336C348.864 145.524 348.396 143.381 348.396 140.908C348.396 138.495 348.864 136.378 349.801 134.555C350.738 132.733 352.056 131.313 353.756 130.295C355.466 129.277 357.472 128.768 359.772 128.768C361.32 128.768 362.76 129.018 364.094 129.516C365.437 130.005 366.608 130.743 367.606 131.73C368.614 132.718 369.397 133.96 369.957 135.456C370.517 136.943 370.797 138.683 370.797 140.679V142.465H350.992V138.434H364.674C364.674 137.497 364.47 136.668 364.063 135.945C363.656 135.222 363.091 134.657 362.368 134.25C361.656 133.833 360.826 133.624 359.879 133.624C358.892 133.624 358.016 133.853 357.253 134.311C356.499 134.759 355.909 135.365 355.481 136.128C355.054 136.882 354.835 137.721 354.825 138.648V142.48C354.825 143.641 355.039 144.644 355.466 145.489C355.904 146.334 356.52 146.985 357.314 147.443C358.108 147.901 359.05 148.13 360.139 148.13C360.862 148.13 361.523 148.029 362.124 147.825C362.724 147.621 363.239 147.316 363.666 146.909C364.094 146.502 364.419 146.003 364.643 145.412L370.66 145.809C370.354 147.255 369.728 148.517 368.782 149.596C367.845 150.665 366.634 151.5 365.147 152.101C363.671 152.691 361.966 152.986 360.032 152.986ZM381.547 121.255V152.528H375.042V121.255H381.547ZM393.263 121.255V152.528H386.758V121.255H393.263ZM409.071 152.986C406.699 152.986 404.648 152.482 402.917 151.474C401.197 150.456 399.868 149.041 398.932 147.229C397.995 145.407 397.527 143.295 397.527 140.892C397.527 138.47 397.995 136.352 398.932 134.54C399.868 132.718 401.197 131.303 402.917 130.295C404.648 129.277 406.699 128.768 409.071 128.768C411.443 128.768 413.489 129.277 415.21 130.295C416.94 131.303 418.274 132.718 419.21 134.54C420.147 136.352 420.615 138.47 420.615 140.892C420.615 143.295 420.147 145.407 419.21 147.229C418.274 149.041 416.94 150.456 415.21 151.474C413.489 152.482 411.443 152.986 409.071 152.986ZM409.102 147.947C410.181 147.947 411.082 147.642 411.804 147.031C412.527 146.41 413.072 145.565 413.438 144.496C413.815 143.427 414.003 142.211 414.003 140.847C414.003 139.483 413.815 138.266 413.438 137.197C413.072 136.128 412.527 135.283 411.804 134.662C411.082 134.041 410.181 133.731 409.102 133.731C408.012 133.731 407.096 134.041 406.353 134.662C405.62 135.283 405.065 136.128 404.689 137.197C404.322 138.266 404.139 139.483 404.139 140.847C404.139 142.211 404.322 143.427 404.689 144.496C405.065 145.565 405.62 146.41 406.353 147.031C407.096 147.642 408.012 147.947 409.102 147.947ZM441.959 152.528L433.01 121.255H440.233L445.41 142.984H445.669L451.38 121.255H457.564L463.26 143.03H463.535L468.711 121.255H475.934L466.986 152.528H460.542L454.587 132.082H454.343L448.403 152.528H441.959ZM487.429 152.986C485.057 152.986 483.005 152.482 481.275 151.474C479.554 150.456 478.226 149.041 477.289 147.229C476.353 145.407 475.884 143.295 475.884 140.892C475.884 138.47 476.353 136.352 477.289 134.54C478.226 132.718 479.554 131.303 481.275 130.295C483.005 129.277 485.057 128.768 487.429 128.768C489.8 128.768 491.847 129.277 493.567 130.295C495.298 131.303 496.631 132.718 497.568 134.54C498.504 136.352 498.973 138.47 498.973 140.892C498.973 143.295 498.504 145.407 497.568 147.229C496.631 149.041 495.298 150.456 493.567 151.474C491.847 152.482 489.8 152.986 487.429 152.986ZM487.459 147.947C488.538 147.947 489.439 147.642 490.162 147.031C490.885 146.41 491.429 145.565 491.796 144.496C492.172 143.427 492.361 142.211 492.361 140.847C492.361 139.483 492.172 138.266 491.796 137.197C491.429 136.128 490.885 135.283 490.162 134.662C489.439 134.041 488.538 133.731 487.459 133.731C486.37 133.731 485.454 134.041 484.71 134.662C483.978 135.283 483.423 136.128 483.046 137.197C482.68 138.266 482.496 139.483 482.496 140.847C482.496 142.211 482.68 143.427 483.046 144.496C483.423 145.565 483.978 146.41 484.71 147.031C485.454 147.642 486.37 147.947 487.459 147.947ZM503.202 152.528V129.074H509.509V133.166H509.753C510.181 131.71 510.898 130.611 511.906 129.868C512.914 129.114 514.074 128.738 515.388 128.738C515.713 128.738 516.065 128.758 516.441 128.799C516.818 128.839 517.149 128.895 517.434 128.967V134.739C517.128 134.647 516.706 134.566 516.166 134.494C515.627 134.423 515.133 134.387 514.685 134.387C513.728 134.387 512.873 134.596 512.12 135.014C511.377 135.421 510.786 135.991 510.349 136.724C509.921 137.457 509.707 138.302 509.707 139.259V152.528H503.202ZM527.302 121.255V152.528H520.797V121.255H527.302ZM541.156 152.91C539.374 152.91 537.761 152.452 536.315 151.536C534.88 150.609 533.74 149.25 532.895 147.458C532.06 145.657 531.642 143.448 531.642 140.831C531.642 138.144 532.075 135.909 532.94 134.128C533.806 132.336 534.956 130.998 536.391 130.112C537.837 129.216 539.42 128.768 541.14 128.768C542.454 128.768 543.548 128.992 544.423 129.44C545.309 129.878 546.022 130.427 546.561 131.089C547.111 131.741 547.528 132.382 547.813 133.013H548.012V121.255H554.502V152.528H548.088V148.772H547.813C547.508 149.423 547.075 150.07 546.515 150.711C545.966 151.342 545.248 151.866 544.362 152.284C543.487 152.701 542.418 152.91 541.156 152.91ZM543.217 147.733C544.266 147.733 545.151 147.448 545.874 146.878C546.607 146.298 547.167 145.489 547.554 144.45C547.951 143.412 548.149 142.195 548.149 140.801C548.149 139.406 547.956 138.195 547.569 137.167C547.182 136.138 546.622 135.344 545.889 134.784C545.156 134.225 544.266 133.945 543.217 133.945C542.148 133.945 541.247 134.235 540.514 134.815C539.781 135.395 539.227 136.199 538.85 137.228C538.473 138.256 538.285 139.447 538.285 140.801C538.285 142.165 538.473 143.371 538.85 144.42C539.237 145.458 539.792 146.273 540.514 146.863C541.247 147.443 542.148 147.733 543.217 147.733ZM487.715 194.71V189.335L509.215 179.867V186.052L494.495 191.961L494.693 191.64V192.404L494.495 192.083L509.215 197.993V204.177L487.715 194.71ZM529.295 171.789L519.217 209.231H513.613L523.691 171.789H529.295ZM532.551 204.528V173.255H539.163V186.158H552.585V173.255H559.182V204.528H552.585V191.61H539.163V204.528H532.551ZM578.055 173.255V204.528H571.443V179.531H571.26L564.099 184.021V178.157L571.84 173.255H578.055ZM608.316 191.778L586.816 201.245V195.061L601.537 189.151L601.338 189.472V188.708L601.537 189.029L586.816 183.12V176.935L608.316 186.403V191.778Z" fill="#0ACF83"/>
</svg>
