<svg width="594" height="310" viewBox="0 0 594 310" fill="none" xmlns="http://www.w3.org/2000/svg">
<path d="M265.732 13.4567C265.647 12.5973 265.281 11.9297 264.635 11.4538C263.989 10.978 263.112 10.7401 262.004 10.7401C261.251 10.7401 260.615 10.8466 260.097 11.0597C259.578 11.2656 259.18 11.5533 258.903 11.9226C258.634 12.2919 258.499 12.7109 258.499 13.1797C258.484 13.5703 258.566 13.9112 258.744 14.2024C258.928 14.4936 259.18 14.7457 259.5 14.9588C259.82 15.1648 260.189 15.3459 260.608 15.5021C261.027 15.6513 261.474 15.7791 261.95 15.8857L263.911 16.3544C264.862 16.5675 265.736 16.8516 266.531 17.2067C267.327 17.5618 268.016 17.9986 268.598 18.517C269.18 19.0355 269.631 19.6463 269.951 20.3494C270.278 21.0526 270.445 21.8587 270.452 22.7678C270.445 24.103 270.104 25.2607 269.429 26.2408C268.761 27.2138 267.795 27.9702 266.531 28.5099C265.274 29.0426 263.758 29.3089 261.982 29.3089C260.221 29.3089 258.687 29.0391 257.38 28.4993C256.08 27.9595 255.065 27.1605 254.333 26.1023C253.609 25.0369 253.229 23.7195 253.193 22.1499H257.657C257.707 22.8814 257.916 23.4922 258.286 23.9822C258.662 24.4652 259.163 24.831 259.788 25.0795C260.42 25.321 261.134 25.4418 261.929 25.4418C262.71 25.4418 263.388 25.3281 263.964 25.1009C264.546 24.8736 264.997 24.5575 265.317 24.1527C265.636 23.7479 265.796 23.2827 265.796 22.7571C265.796 22.267 265.651 21.8551 265.359 21.5213C265.075 21.1875 264.656 20.9034 264.102 20.669C263.555 20.4347 262.884 20.2216 262.089 20.0298L259.713 19.4332C257.874 18.9858 256.421 18.2862 255.356 17.3345C254.29 16.3828 253.761 15.1009 253.768 13.4886C253.761 12.1676 254.113 11.0135 254.823 10.0263C255.54 9.03906 256.524 8.26847 257.774 7.71449C259.024 7.16051 260.445 6.88352 262.036 6.88352C263.655 6.88352 265.068 7.16051 266.276 7.71449C267.49 8.26847 268.435 9.03906 269.109 10.0263C269.784 11.0135 270.132 12.157 270.153 13.4567H265.732ZM277.581 24.2912L277.592 18.8473H278.253L283.494 12.6364H288.704L281.662 20.8608H280.586L277.581 24.2912ZM273.469 29V7.18182H278.008V29H273.469ZM283.697 29L278.881 21.8729L281.907 18.6662L289.013 29H283.697ZM290.93 29V12.6364H295.469V29H290.93ZM293.21 10.527C292.535 10.527 291.956 10.3033 291.474 9.85582C290.998 9.40128 290.76 8.85795 290.76 8.22585C290.76 7.60085 290.998 7.06463 291.474 6.61719C291.956 6.16264 292.535 5.93537 293.21 5.93537C293.885 5.93537 294.46 6.16264 294.936 6.61719C295.419 7.06463 295.66 7.60085 295.66 8.22585C295.66 8.85795 295.419 9.40128 294.936 9.85582C294.46 10.3033 293.885 10.527 293.21 10.527ZM303.642 7.18182V29H299.104V7.18182H303.642ZM311.816 7.18182V29H307.278V7.18182H311.816ZM329.067 17.3026L324.912 17.5582C324.841 17.2031 324.688 16.8835 324.454 16.5994C324.219 16.3082 323.911 16.0774 323.527 15.907C323.151 15.7294 322.7 15.6406 322.174 15.6406C321.471 15.6406 320.878 15.7898 320.395 16.0881C319.912 16.3793 319.67 16.7699 319.67 17.2599C319.67 17.6506 319.827 17.9808 320.139 18.2507C320.452 18.5206 320.988 18.7372 321.748 18.9006L324.71 19.4972C326.3 19.8239 327.487 20.3494 328.268 21.0739C329.049 21.7983 329.44 22.75 329.44 23.929C329.44 25.0014 329.124 25.9425 328.491 26.7521C327.866 27.5618 327.007 28.1939 325.913 28.6484C324.827 29.0959 323.573 29.3196 322.153 29.3196C319.987 29.3196 318.261 28.8686 316.975 27.9666C315.697 27.0575 314.947 25.8217 314.727 24.2592L319.191 24.0249C319.326 24.6854 319.653 25.1896 320.171 25.5376C320.69 25.8786 321.354 26.049 322.163 26.049C322.959 26.049 323.598 25.8963 324.081 25.5909C324.571 25.2784 324.82 24.8771 324.827 24.3871C324.82 23.9751 324.646 23.6378 324.305 23.375C323.964 23.1051 323.438 22.8991 322.728 22.7571L319.894 22.1925C318.296 21.8729 317.107 21.3189 316.325 20.5305C315.551 19.7422 315.164 18.7372 315.164 17.5156C315.164 16.4645 315.448 15.5589 316.016 14.799C316.592 14.0391 317.398 13.4531 318.435 13.0412C319.479 12.6293 320.7 12.4233 322.099 12.4233C324.166 12.4233 325.793 12.8601 326.979 13.7337C328.172 14.6072 328.868 15.7969 329.067 17.3026Z" fill="black"/>
<rect y="52" width="594" height="258" rx="15" fill="#191717"/>
<path d="M315.782 280.335H317.386V273.998L319.871 279.523C320.164 280.191 320.565 280.428 321.352 280.428C322.139 280.428 322.525 280.191 322.818 279.523L325.302 273.998V280.335H326.907V274.009C326.907 273.391 326.66 273.093 326.151 272.939C324.932 272.558 324.114 272.888 323.743 273.711L321.305 279.163L318.945 273.71C318.59 272.888 317.757 272.558 316.538 272.938C316.028 273.093 315.781 273.391 315.781 274.008V280.335H315.782ZM328.242 275.177H329.846V278.668C329.831 278.857 329.907 279.303 330.786 279.317C331.234 279.324 334.248 279.317 334.276 279.317V275.159H335.884C335.891 275.159 335.882 280.829 335.882 280.852C335.891 282.251 334.148 282.554 333.344 282.578H328.277V281.498C328.285 281.498 333.34 281.499 333.353 281.498C334.386 281.389 334.264 280.875 334.263 280.703V280.282H330.853C329.266 280.267 328.255 279.575 328.242 278.778C328.241 278.705 328.277 275.212 328.242 275.177V275.177ZM337.121 280.335H341.735C342.275 280.335 342.8 280.222 343.217 280.027C343.911 279.708 344.25 279.276 344.25 278.71V277.537C344.25 277.074 343.865 276.642 343.109 276.354C342.707 276.2 342.213 276.118 341.735 276.118H339.79C339.142 276.118 338.834 275.923 338.757 275.491C338.741 275.439 338.741 275.398 338.741 275.346V274.616C338.741 274.575 338.741 274.534 338.757 274.482C338.834 274.153 339.004 274.061 339.575 274.009L339.729 273.999H344.312V272.929H339.806C339.158 272.929 338.819 272.97 338.51 273.063C337.554 273.361 337.136 273.834 337.136 274.657V275.593C337.136 276.314 337.955 276.931 339.328 277.075C339.482 277.085 339.636 277.096 339.791 277.096H341.457C341.519 277.096 341.581 277.096 341.627 277.105C342.137 277.146 342.352 277.239 342.507 277.424C342.547 277.461 342.578 277.505 342.599 277.555C342.621 277.605 342.631 277.658 342.63 277.712V278.648C342.63 278.761 342.553 278.905 342.399 279.029C342.26 279.152 342.029 279.235 341.72 279.255L341.55 279.266H337.121V280.335ZM354.262 278.473C354.262 279.574 355.08 280.191 356.731 280.315C356.885 280.325 357.039 280.335 357.194 280.335H361.376V279.266H357.163C356.222 279.266 355.867 279.029 355.867 278.463V272.929H354.263V278.473H354.262ZM345.275 278.529V274.714C345.275 273.746 345.955 273.158 347.3 272.972C347.444 272.952 347.588 272.941 347.733 272.941H350.78C350.934 272.941 351.073 272.952 351.228 272.972C352.573 273.158 353.254 273.745 353.254 274.714V278.529C353.254 279.316 352.965 279.736 352.299 280.01L353.88 281.437H352.016L350.737 280.282L349.45 280.364H347.733C347.414 280.362 347.097 280.317 346.79 280.23C345.77 279.952 345.275 279.416 345.275 278.529V278.529ZM347.007 278.436C347.007 278.488 347.022 278.54 347.038 278.602C347.13 279.045 347.548 279.292 348.182 279.292H349.64L348.301 278.083H350.164L351.332 279.138C351.548 279.023 351.689 278.848 351.739 278.622C351.754 278.571 351.754 278.519 351.754 278.468V274.808C351.754 274.767 351.754 274.715 351.739 274.664C351.646 274.251 351.228 274.014 350.61 274.014H348.182C347.471 274.014 347.007 274.324 347.007 274.808V278.436H347.007ZM362.787 271.153C361.801 271.126 361.048 271.218 360.403 271.489C360.22 271.567 359.928 271.569 359.898 271.798C359.999 271.904 360.014 272.061 360.095 272.191C360.248 272.44 360.508 272.773 360.74 272.948C360.993 273.139 361.254 273.344 361.525 273.509C362.008 273.804 362.547 273.972 363.012 274.266C363.286 274.441 363.558 274.659 363.825 274.856C363.958 274.952 364.046 275.104 364.218 275.164V275.136C364.128 275.021 364.105 274.864 364.022 274.743L363.657 274.379C363.3 273.905 362.848 273.49 362.366 273.145C361.983 272.869 361.124 272.497 360.964 272.05L360.936 272.023C361.208 271.992 361.527 271.893 361.777 271.826C362.199 271.713 362.576 271.742 363.012 271.63L363.601 271.461V271.349C363.381 271.123 363.223 270.824 362.984 270.62C362.356 270.085 361.67 269.551 360.964 269.105C360.573 268.858 360.089 268.697 359.673 268.488C359.534 268.417 359.289 268.381 359.196 268.263C358.978 267.986 358.86 267.634 358.691 267.31C358.332 266.61 357.995 265.899 357.682 265.178C357.469 264.691 357.33 264.212 357.065 263.775C355.791 261.681 354.42 260.417 352.296 259.175C351.844 258.911 351.3 258.807 350.725 258.67L349.8 258.614C349.612 258.536 349.416 258.305 349.239 258.193C348.535 257.749 346.73 256.782 346.209 258.054C345.88 258.856 346.701 259.639 346.995 260.045C347.2 260.33 347.464 260.65 347.612 260.971C347.709 261.182 347.725 261.393 347.808 261.616C348.012 262.165 348.189 262.763 348.453 263.271C348.586 263.528 348.734 263.798 348.902 264.028C349.005 264.169 349.182 264.231 349.21 264.449C349.037 264.691 349.027 265.068 348.93 265.374C348.491 266.757 348.657 268.475 349.295 269.498C349.49 269.813 349.951 270.486 350.585 270.227C351.139 270.002 351.016 269.302 351.174 268.684C351.21 268.545 351.188 268.442 351.258 268.348V268.376L351.763 269.386C352.137 269.988 352.8 270.616 353.362 271.041C353.654 271.261 353.883 271.642 354.26 271.77V271.742H354.232C354.159 271.628 354.045 271.581 353.951 271.489C353.732 271.274 353.488 271.007 353.306 270.76C352.795 270.066 352.343 269.307 351.932 268.516C351.735 268.139 351.564 267.722 351.399 267.338C351.335 267.19 351.336 266.966 351.203 266.889C351.021 267.171 350.754 267.398 350.613 267.731C350.389 268.262 350.36 268.91 350.277 269.582L350.221 269.61C349.83 269.516 349.693 269.113 349.547 268.768C349.18 267.896 349.112 266.491 349.435 265.487C349.519 265.227 349.896 264.408 349.743 264.168C349.67 263.929 349.429 263.79 349.295 263.607C349.119 263.361 348.968 263.098 348.846 262.821C348.545 262.141 348.405 261.377 348.089 260.689C347.938 260.361 347.682 260.028 347.472 259.736C347.239 259.412 346.979 259.173 346.798 258.782C346.734 258.643 346.647 258.42 346.742 258.277C346.772 258.18 346.816 258.14 346.911 258.109C347.073 257.983 347.527 258.15 347.696 258.221C348.146 258.408 348.521 258.586 348.903 258.838C349.086 258.959 349.27 259.194 349.492 259.259H349.744C350.139 259.349 350.582 259.286 350.95 259.398C351.603 259.597 352.187 259.905 352.718 260.24C354.334 261.261 355.656 262.714 356.561 264.448C356.706 264.727 356.769 264.993 356.897 265.289C357.155 265.886 357.481 266.501 357.738 267.085C357.995 267.667 358.245 268.255 358.608 268.74C358.799 268.995 359.536 269.131 359.87 269.273C360.105 269.372 360.489 269.475 360.712 269.609C361.136 269.865 361.548 270.17 361.946 270.451C362.145 270.592 362.757 270.9 362.787 271.153V271.153ZM350.249 260.466C350.079 260.463 349.909 260.482 349.744 260.522V260.55H349.772C349.87 260.752 350.043 260.882 350.164 261.055L350.445 261.644L350.473 261.616C350.647 261.494 350.726 261.298 350.725 260.999C350.655 260.926 350.645 260.834 350.585 260.747C350.505 260.63 350.35 260.564 350.249 260.466V260.466Z" fill="white"/>
<path d="M339.027 206.84H331.344C329.812 206.84 328.555 208.098 328.555 209.656C328.5 211.16 329.703 212.418 331.207 212.473H339.109L339.027 206.84V206.84Z" fill="#073042"/>
<path d="M356.445 231.887H331.344C329.785 231.887 328.555 230.629 328.555 229.07V209.629C328.555 211.188 329.813 212.445 331.344 212.473H352.371C352.371 212.473 356.473 212.117 356.473 215.207V231.887H356.445Z" fill="#4285F4"/>
<path d="M344.742 221.934C345.863 221.086 346.082 219.5 345.234 218.406C344.77 217.805 344.059 217.422 343.293 217.394H343.375C343.512 217.367 343.676 217.367 343.813 217.394V215.836C343.813 215.644 343.73 215.48 343.566 215.398C343.32 215.262 343.02 215.344 342.883 215.59C342.828 215.672 342.801 215.754 342.828 215.863V217.449C341.461 217.668 340.504 218.953 340.723 220.348V220.375C340.832 221.031 341.188 221.633 341.734 222.016L337.113 231.914H340.121L342.254 227.375C342.5 226.828 343.156 226.582 343.73 226.855C343.949 226.965 344.141 227.156 344.25 227.375L346.465 231.914H349.527L344.742 221.934ZM343.184 221.496C342.309 221.496 341.625 220.785 341.625 219.91C341.625 219.035 342.336 218.351 343.211 218.379C343.621 218.379 343.977 218.543 344.277 218.816C344.906 219.418 344.906 220.402 344.305 221.031C344.031 221.305 343.621 221.496 343.184 221.496Z" fill="#3870B2"/>
<path d="M337.359 208.207H348.133V210.176H337.359V208.207Z" fill="white"/>
<path d="M342.363 218.352C343.211 218.352 343.922 219.062 343.894 219.937C343.894 220.785 343.184 221.496 342.309 221.469C341.461 221.469 340.777 220.758 340.777 219.91C340.777 219.5 340.941 219.117 341.242 218.816C341.543 218.516 341.953 218.352 342.363 218.352V218.352ZM342.965 217.449V215.809C342.965 215.617 342.883 215.453 342.719 215.371C342.473 215.234 342.172 215.316 342.035 215.562C341.98 215.645 341.953 215.727 341.98 215.836V217.422C340.613 217.641 339.656 218.926 339.875 220.32V220.348C339.984 221.004 340.34 221.605 340.887 221.988L335.062 234.484C334.844 234.922 334.871 235.469 335.172 235.879C335.609 236.508 336.457 236.672 337.086 236.234C337.305 236.098 337.469 235.879 337.578 235.66L341.461 227.348C341.707 226.801 342.363 226.555 342.937 226.828C343.156 226.937 343.348 227.129 343.457 227.348L347.422 235.578C347.75 236.262 348.57 236.535 349.254 236.207C349.937 235.879 350.211 235.059 349.883 234.375L343.894 221.934C344.988 221.059 345.18 219.445 344.305 218.352C343.977 217.914 343.512 217.613 342.965 217.449" fill="#073042"/>
<path d="M346.547 209.957C346.137 209.957 345.809 209.656 345.809 209.246C345.809 209.055 345.891 208.836 346.027 208.699C346.328 208.426 346.766 208.426 347.066 208.699C347.203 208.836 347.285 209.027 347.285 209.219C347.258 209.629 346.957 209.93 346.547 209.957M338.453 209.93C338.043 209.93 337.715 209.602 337.715 209.219C337.715 209.027 337.797 208.836 337.934 208.699C338.18 208.398 338.645 208.344 338.945 208.59H338.973C339.273 208.863 339.301 209.328 339.027 209.629L338.945 209.738C338.809 209.875 338.617 209.957 338.426 209.957M346.766 205.527L348.215 203.012C348.297 202.875 348.242 202.711 348.133 202.602C347.996 202.547 347.859 202.574 347.777 202.684L346.273 205.281C343.867 204.215 341.133 204.215 338.754 205.281L337.277 202.711C337.223 202.629 337.113 202.547 337.004 202.547C336.895 202.547 336.785 202.602 336.73 202.711C336.676 202.793 336.676 202.93 336.73 203.012L338.207 205.527C335.637 206.922 333.969 209.547 333.723 212.445H351.277C351.059 209.52 349.363 206.922 346.793 205.527" fill="#3DDC84"/>
<path d="M353.875 217.887H352.727C352.672 217.914 352.617 217.969 352.617 218.051V236.234C352.617 236.316 352.672 236.371 352.754 236.371H353.957C355.352 236.371 356.473 235.223 356.473 233.855V215.344C356.473 216.738 355.352 217.859 353.957 217.859H353.875V217.887Z" fill="#073042"/>
<g clip-path="url(#clip0_20_12)">
<path d="M331.198 77H353.802C354.616 76.9992 355.423 77.1631 356.175 77.4823C356.927 77.8015 357.611 78.2697 358.186 78.8601C358.762 79.4506 359.219 80.1516 359.53 80.9232C359.841 81.6948 360.001 82.5218 360 83.3568V105.643C360.001 106.478 359.841 107.305 359.53 108.077C359.219 108.848 358.762 109.549 358.186 110.14C357.611 110.73 356.927 111.199 356.175 111.518C355.423 111.837 354.616 112.001 353.802 112H331.198C330.384 112.001 329.577 111.837 328.825 111.518C328.073 111.199 327.389 110.73 326.814 110.14C326.238 109.549 325.781 108.848 325.47 108.077C325.159 107.305 324.999 106.478 325 105.643V83.3568C324.999 82.5218 325.159 81.6948 325.47 80.9232C325.781 80.1516 326.238 79.4506 326.814 78.8601C327.389 78.2697 328.073 77.8015 328.825 77.4823C329.577 77.1631 330.384 76.9992 331.198 77Z" fill="#000B1D"/>
<path d="M337.125 101.15C338.851 101.15 340.25 99.7509 340.25 98.025V94.9H337.125C335.399 94.9 334 96.2991 334 98.025C334 99.7509 335.399 101.15 337.125 101.15Z" fill="#0ACF83"/>
<path d="M334 91.775C334 90.0491 335.399 88.65 337.125 88.65H340.25V94.9H337.125C335.399 94.9 334 93.5009 334 91.775Z" fill="#A259FF"/>
<path d="M334 85.525C334 83.7991 335.399 82.4 337.125 82.4H340.25V88.65H337.125C335.399 88.65 334 87.2509 334 85.525Z" fill="#F24E1E"/>
<path d="M340.25 82.4H343.375C345.101 82.4 346.5 83.7991 346.5 85.525C346.5 87.2509 345.101 88.65 343.375 88.65H340.25V82.4Z" fill="#FF7262"/>
<path d="M346.5 91.775C346.5 93.5009 345.101 94.9 343.375 94.9C341.649 94.9 340.25 93.5009 340.25 91.775C340.25 90.0491 341.649 88.65 343.375 88.65C345.101 88.65 346.5 90.0491 346.5 91.775Z" fill="#1ABCFE"/>
</g>
<path fill-rule="evenodd" clip-rule="evenodd" d="M30.1753 212.438C29.5253 212.986 29.2523 213.515 29.2523 214C29.2523 214.485 29.5253 215.014 30.1753 215.562C30.8251 216.111 31.8007 216.631 33.0595 217.081C35.5727 217.978 39.0871 218.545 43 218.545C46.9129 218.545 50.4273 217.978 52.9405 217.081C54.1993 216.631 55.1749 216.111 55.8247 215.562C56.4747 215.014 56.7477 214.485 56.7477 214C56.7477 213.515 56.4747 212.986 55.8247 212.438C55.1749 211.889 54.1993 211.369 52.9405 210.919C50.4273 210.022 46.9129 209.455 43 209.455C39.0871 209.455 35.5727 210.022 33.0595 210.919C31.8007 211.369 30.8251 211.889 30.1753 212.438ZM32.6128 209.826C35.3019 208.866 38.9745 208.285 43 208.285C47.0255 208.285 50.6981 208.866 53.3872 209.826C54.7296 210.305 55.859 210.89 56.6639 211.569C57.4686 212.248 58 213.068 58 214C58 214.932 57.4686 215.752 56.6639 216.431C55.859 217.11 54.7296 217.695 53.3872 218.174C50.6981 219.134 47.0255 219.715 43 219.715C38.9745 219.715 35.3019 219.134 32.6128 218.174C31.2704 217.695 30.141 217.11 29.3361 216.431C28.5314 215.752 28 214.932 28 214C28 213.068 28.5314 212.248 29.3361 211.569C30.141 210.89 31.2704 210.305 32.6128 209.826Z" fill="#61DAFB"/>
<path fill-rule="evenodd" clip-rule="evenodd" d="M38.0352 202.837C37.2021 202.585 36.5755 202.629 36.1261 202.871C35.6768 203.114 35.3232 203.599 35.1401 204.4C34.957 205.2 34.9623 206.25 35.1755 207.494C35.6011 209.977 36.8329 213.105 38.7893 216.272C40.7458 219.44 43.0283 222.001 45.116 223.587C46.1616 224.381 47.1318 224.911 47.9648 225.163C48.7979 225.415 49.4245 225.371 49.8739 225.129C50.3232 224.886 50.6768 224.401 50.8599 223.6C51.043 222.8 51.0377 221.75 50.8245 220.506C50.3989 218.024 49.1671 214.895 47.2107 211.728C45.2542 208.56 42.9717 205.999 40.884 204.413C39.8384 203.619 38.8682 203.089 38.0352 202.837ZM41.6738 203.505C43.9075 205.201 46.2824 207.884 48.2952 211.142C50.3079 214.401 51.6056 217.665 52.061 220.321C52.2883 221.647 52.3113 222.854 52.0845 223.845C51.8577 224.836 51.3631 225.677 50.5 226.142C49.6369 226.608 48.6109 226.588 47.5794 226.276C46.5477 225.964 45.4413 225.343 44.3262 224.495C42.0925 222.799 39.7176 220.116 37.7048 216.858C35.6921 213.599 34.3943 210.335 33.939 207.679C33.7117 206.353 33.6887 205.146 33.9155 204.155C34.1423 203.164 34.6369 202.323 35.5 201.858C36.3631 201.392 37.3891 201.412 38.4206 201.724C39.4522 202.036 40.5587 202.657 41.6738 203.505Z" fill="#61DAFB"/>
<path fill-rule="evenodd" clip-rule="evenodd" d="M50.8599 204.4C50.6768 203.599 50.3232 203.114 49.8739 202.871C49.4245 202.629 48.7979 202.585 47.9648 202.837C47.1318 203.089 46.1616 203.619 45.116 204.413C43.0283 205.999 40.7458 208.56 38.7893 211.728C36.8329 214.895 35.6011 218.024 35.1755 220.506C34.9623 221.75 34.957 222.8 35.1401 223.6C35.3232 224.401 35.6768 224.886 36.1261 225.129C36.5755 225.371 37.2021 225.415 38.0352 225.163C38.8682 224.911 39.8384 224.381 40.884 223.587C42.9717 222.001 45.2542 219.44 47.2107 216.272C49.1671 213.105 50.3989 209.977 50.8245 207.494C51.0377 206.25 51.043 205.2 50.8599 204.4ZM52.061 207.679C51.6056 210.335 50.3079 213.599 48.2952 216.858C46.2824 220.116 43.9075 222.799 41.6738 224.495C40.5587 225.343 39.4522 225.964 38.4206 226.276C37.3891 226.588 36.3631 226.608 35.5 226.142C34.6369 225.677 34.1423 224.836 33.9155 223.845C33.6887 222.854 33.7117 221.647 33.939 220.321C34.3943 217.665 35.6921 214.401 37.7048 211.142C39.7176 207.884 42.0925 205.201 44.3262 203.505C45.4413 202.657 46.5478 202.036 47.5794 201.724C48.6109 201.412 49.6369 201.392 50.5 201.858C51.3631 202.323 51.8577 203.164 52.0845 204.155C52.3113 205.146 52.2883 206.353 52.061 207.679Z" fill="#61DAFB"/>
<path d="M43.0857 215.891C44.2375 215.891 45.1713 215.02 45.1713 213.946C45.1713 212.871 44.2375 212 43.0857 212C41.9338 212 41 212.871 41 213.946C41 215.02 41.9338 215.891 43.0857 215.891Z" fill="#61DAFB"/>
<path d="M41.9817 173.023L29.7302 169.622L27 139H57L54.2669 169.617L41.9817 173.023Z" fill="#264DE4"/>
<path d="M51.9271 167.668L54.2626 141.504H42V170.42L51.9271 167.668Z" fill="#2965F1"/>
<path d="M33.2589 152.861L33.5955 156.617H42V152.861H33.2589ZM32.5825 145.26L32.9239 149.015H42V145.26H32.5825ZM42 162.615L41.9835 162.619L37.8009 161.49L37.5334 158.495H33.7633L34.2894 164.392L41.9827 166.527L42 166.522V162.615Z" fill="#EBEBEB"/>
<path d="M50.7171 152.861L51.395 145.26H41.9871V149.015H47.2791L46.9374 152.861H41.9871V156.617H46.6118L46.1757 161.488L41.9869 162.618V166.525L49.6863 164.392L49.7428 163.757L50.6254 153.87L50.7171 152.861Z" fill="white"/>
<path d="M57 79.3218L54.2669 109.939L41.9817 113.345L29.7302 109.944L27 79.3218H57Z" fill="#E44D26"/>
<path d="M42 110.742L51.9271 107.99L54.2626 81.8256H42V110.742Z" fill="#F16529"/>
<path d="M36.687 89.337H42V85.5814H32.5825L32.6724 86.5889L33.5955 96.9386H42V93.1829H37.0302L36.687 89.337ZM37.5334 98.8165H33.7633L34.2894 104.713L41.9827 106.849L42 106.844V102.937L41.9835 102.941L37.8009 101.812L37.5334 98.8165Z" fill="#EBEBEB"/>
<path d="M41.9871 96.9386H46.6118L46.1757 101.809L41.9869 102.94V106.847L49.6863 104.713L49.7428 104.079L50.6254 94.1914L50.7171 93.1829H41.9871V96.9386ZM41.9871 89.3279V89.337H51.0588L51.1341 88.4929L51.3053 86.5889L51.395 85.5814H41.9871V89.328V89.3279Z" fill="white"/>
<path d="M34.0771 271.753C34.8065 271.753 35.3511 271.618 35.6956 271.353C36.0365 271.091 36.2719 270.636 36.3953 270.002C36.5104 269.409 36.4665 268.995 36.2651 268.771C36.0591 268.543 35.6138 268.427 34.9415 268.427H33.7757L33.1295 271.753H34.0771ZM30.2643 275.849C30.2102 275.849 30.1588 275.825 30.1244 275.783C30.09 275.741 30.076 275.686 30.0863 275.633L31.799 266.821C31.8156 266.736 31.8903 266.674 31.9771 266.674H35.6684C36.8284 266.674 37.6919 266.989 38.2347 267.61C38.7803 268.235 38.9488 269.108 38.7354 270.205C38.6486 270.652 38.4993 271.068 38.2916 271.439C38.0837 271.811 37.8089 272.156 37.4748 272.463C37.0748 272.837 36.622 273.109 36.1304 273.269C35.6465 273.426 35.0251 273.506 34.2835 273.506H32.7888L32.362 275.702C32.3454 275.787 32.2708 275.849 32.184 275.849H30.2643Z" fill="black"/>
<path d="M33.9252 268.609H34.9414C35.7529 268.609 36.0347 268.787 36.1305 268.893C36.2894 269.069 36.3194 269.441 36.2173 269.967C36.1025 270.557 35.8898 270.975 35.585 271.209C35.2729 271.45 34.7655 271.571 34.0771 271.571H33.3495L33.9252 268.609ZM35.6683 266.493H31.977C31.8034 266.493 31.6541 266.616 31.621 266.786L29.9083 275.598C29.8876 275.705 29.9155 275.815 29.9844 275.898C30.0533 275.982 30.156 276.03 30.2643 276.03H32.1839C32.3576 276.03 32.5069 275.907 32.54 275.737L32.9383 273.687H34.2835C35.0442 273.687 35.6845 273.604 36.1867 273.441C36.703 273.273 37.1781 272.989 37.5986 272.595C37.9464 272.276 38.2328 271.916 38.4499 271.528C38.667 271.139 38.823 270.706 38.9135 270.24C39.1381 269.085 38.9556 268.16 38.3712 267.491C37.7925 266.829 36.8831 266.493 35.6683 266.493ZM32.9094 271.934H34.0771C34.851 271.934 35.4275 271.788 35.8063 271.497C36.1851 271.205 36.4406 270.718 36.5734 270.036C36.7004 269.381 36.6425 268.919 36.3998 268.65C36.1567 268.381 35.6707 268.246 34.9414 268.246H33.6262L32.9094 271.934ZM35.6683 266.856C36.7788 266.856 37.5889 267.147 38.0981 267.73C38.6072 268.313 38.7605 269.126 38.5574 270.171C38.4738 270.601 38.3324 270.995 38.1333 271.351C37.9339 271.708 37.6737 272.034 37.352 272.329C36.9687 272.688 36.5429 272.944 36.0743 273.096C35.6058 273.249 35.009 273.325 34.2835 273.325H32.6392L32.1839 275.667H30.2643L31.977 266.856H35.6683Z" fill="white"/>
<path d="M43.1367 273.506C43.0826 273.506 43.0312 273.482 42.9968 273.44C42.9623 273.398 42.9483 273.343 42.9587 273.29L43.7163 269.391C43.7884 269.02 43.7706 268.754 43.6663 268.642C43.6024 268.573 43.4107 268.458 42.8436 268.458H41.4711L40.5185 273.359C40.502 273.445 40.4273 273.506 40.3405 273.506H38.436C38.3819 273.506 38.3305 273.482 38.2961 273.44C38.2616 273.398 38.2476 273.343 38.258 273.29L39.9707 264.478C39.9872 264.393 40.0619 264.331 40.1487 264.331H42.0532C42.1073 264.331 42.1587 264.356 42.1931 264.397C42.2276 264.439 42.2416 264.494 42.2312 264.547L41.8179 266.674H43.2945C44.4193 266.674 45.1821 266.872 45.6263 267.28C46.0791 267.697 46.2204 268.362 46.0463 269.259L45.2495 273.359C45.2329 273.445 45.1583 273.506 45.0714 273.506H43.1367Z" fill="black"/>
<path d="M42.0532 264.15H40.1487C39.975 264.15 39.8257 264.273 39.7926 264.443L38.0799 273.255C38.0592 273.362 38.0872 273.472 38.1561 273.555C38.225 273.639 38.3277 273.687 38.436 273.687H40.3405C40.5141 273.687 40.6635 273.564 40.6966 273.394L41.6206 268.639H42.8436C43.4097 268.639 43.5285 268.76 43.5333 268.765C43.5676 268.802 43.6128 268.973 43.5382 269.357L42.7806 273.255C42.7599 273.362 42.7879 273.472 42.8568 273.555C42.9257 273.639 43.0284 273.687 43.1367 273.687H45.0714C45.245 273.687 45.3944 273.564 45.4275 273.394L46.2243 269.293C46.4113 268.331 46.2513 267.609 45.749 267.147C45.2697 266.707 44.4668 266.493 43.2945 266.493H42.0379L42.4093 264.582C42.4299 264.476 42.402 264.366 42.3331 264.282C42.2642 264.198 42.1615 264.15 42.0532 264.15ZM42.0532 264.513L41.5978 266.856H43.2945C44.362 266.856 45.0983 267.042 45.5036 267.414C45.9088 267.786 46.0302 268.39 45.8683 269.224L45.0714 273.325H43.1367L43.8943 269.426C43.9805 268.982 43.9489 268.68 43.7992 268.518C43.6494 268.357 43.3308 268.276 42.8436 268.276H41.3215L40.3405 273.325H38.436L40.1487 264.513H42.0532Z" fill="white"/>
<path d="M49.0597 271.753C49.7892 271.753 50.3337 271.618 50.6783 271.353C51.0191 271.091 51.2546 270.636 51.378 270.002C51.4931 269.409 51.4493 268.995 51.2477 268.771C51.0418 268.543 50.5964 268.427 49.9241 268.427H48.7584L48.1122 271.753H49.0597ZM45.2471 275.849C45.1929 275.849 45.1416 275.825 45.1072 275.783C45.0727 275.741 45.0587 275.686 45.069 275.633L46.7817 266.821C46.7983 266.736 46.8729 266.674 46.9598 266.674H50.651C51.8112 266.674 52.6746 266.989 53.2174 267.61C53.763 268.235 53.9315 269.108 53.7182 270.205C53.6312 270.652 53.4819 271.068 53.2743 271.439C53.0664 271.811 52.7916 272.156 52.4574 272.463C52.0574 272.837 51.6047 273.109 51.113 273.269C50.6292 273.426 50.0078 273.506 49.2661 273.506H47.7714L47.3447 275.702C47.3281 275.787 47.2535 275.849 47.1666 275.849H45.2471Z" fill="black"/>
<path d="M48.908 268.609H49.9242C50.7356 268.609 51.0175 268.787 51.1132 268.893C51.2722 269.069 51.3022 269.441 51.2 269.967C51.0852 270.557 50.8725 270.975 50.5677 271.209C50.2556 271.45 49.7482 271.571 49.0598 271.571H48.3323L48.908 268.609ZM50.6511 266.493H46.9598C46.7862 266.493 46.6369 266.616 46.6038 266.786L44.8911 275.598C44.8704 275.705 44.8983 275.815 44.9672 275.898C45.0361 275.982 45.1388 276.03 45.2471 276.03H47.1667C47.3403 276.03 47.4897 275.907 47.5228 275.737L47.921 273.687H49.2662C50.0269 273.687 50.6673 273.604 51.1694 273.441C51.6858 273.273 52.161 272.989 52.5815 272.595C52.9292 272.275 53.2156 271.916 53.4326 271.528C53.6497 271.139 53.8057 270.706 53.8962 270.24C54.1208 269.085 53.9384 268.16 53.354 267.491C52.7752 266.829 51.8659 266.493 50.6511 266.493ZM47.8922 271.934H49.0598C49.8337 271.934 50.4102 271.788 50.789 271.497C51.1679 271.205 51.4233 270.718 51.5561 270.036C51.6832 269.381 51.6253 268.919 51.3825 268.65C51.1395 268.381 50.6534 268.246 49.9242 268.246H48.6089L47.8922 271.934ZM50.6511 266.856C51.7615 266.856 52.5716 267.147 53.0808 267.73C53.59 268.313 53.7433 269.126 53.5401 270.171C53.4565 270.601 53.3151 270.995 53.116 271.351C52.9167 271.708 52.6564 272.034 52.3347 272.329C51.9514 272.688 51.5256 272.944 51.0571 273.096C50.5885 273.249 49.9917 273.325 49.2662 273.325H47.6219L47.1667 275.667H45.2471L46.9598 266.856H50.6511Z" fill="white"/>
<path d="M86.9482 96V85.0909H89.2546V89.592H93.9368V85.0909H96.2379V96H93.9368V91.4936H89.2546V96H86.9482ZM97.7241 86.9925V85.0909H106.684V86.9925H103.344V96H101.064V86.9925H97.7241ZM108.159 85.0909H111.004L114.008 92.4205H114.136L117.14 85.0909H119.984V96H117.747V88.8995H117.657L114.833 95.9467H113.31L110.487 88.8729H110.396V96H108.159V85.0909ZM121.885 96V85.0909H124.191V94.0984H128.868V96H121.885Z" fill="#F16529"/>
<path d="M388.948 270.091H391.793L394.797 277.42H394.925L397.929 270.091H400.773V281H398.536V273.9H398.446L395.623 280.947H394.099L391.276 273.873H391.185V281H388.948V270.091ZM404.032 284.068C403.744 284.068 403.475 284.045 403.222 283.999C402.974 283.956 402.768 283.901 402.604 283.834L403.116 282.14C403.382 282.222 403.622 282.266 403.835 282.273C404.052 282.28 404.238 282.23 404.394 282.124C404.554 282.017 404.684 281.836 404.783 281.581L404.916 281.234L401.981 272.818H404.368L406.062 278.827H406.147L407.857 272.818H410.259L407.079 281.884C406.926 282.325 406.718 282.708 406.456 283.035C406.196 283.365 405.868 283.619 405.47 283.797C405.073 283.978 404.593 284.068 404.032 284.068ZM417.381 273.228C417.338 272.799 417.155 272.465 416.832 272.227C416.509 271.989 416.07 271.87 415.516 271.87C415.14 271.87 414.822 271.923 414.563 272.03C414.304 272.133 414.105 272.277 413.966 272.461C413.831 272.646 413.764 272.855 413.764 273.09C413.757 273.285 413.798 273.456 413.886 273.601C413.979 273.747 414.105 273.873 414.265 273.979C414.424 274.082 414.609 274.173 414.819 274.251C415.028 274.326 415.252 274.39 415.49 274.443L416.47 274.677C416.946 274.784 417.383 274.926 417.78 275.103C418.178 275.281 418.522 275.499 418.814 275.759C419.105 276.018 419.33 276.323 419.49 276.675C419.653 277.026 419.737 277.429 419.741 277.884C419.737 278.551 419.566 279.13 419.229 279.62C418.895 280.107 418.412 280.485 417.78 280.755C417.152 281.021 416.394 281.154 415.506 281.154C414.625 281.154 413.858 281.02 413.205 280.75C412.555 280.48 412.047 280.08 411.681 279.551C411.319 279.018 411.129 278.36 411.111 277.575H413.343C413.368 277.941 413.473 278.246 413.657 278.491C413.846 278.733 414.096 278.915 414.408 279.04C414.725 279.161 415.081 279.221 415.479 279.221C415.87 279.221 416.209 279.164 416.497 279.05C416.788 278.937 417.013 278.779 417.173 278.576C417.333 278.374 417.413 278.141 417.413 277.879C417.413 277.634 417.34 277.428 417.194 277.261C417.052 277.094 416.843 276.952 416.566 276.835C416.292 276.717 415.957 276.611 415.559 276.515L414.371 276.217C413.451 275.993 412.725 275.643 412.193 275.167C411.66 274.691 411.395 274.05 411.399 273.244C411.395 272.584 411.571 272.007 411.926 271.513C412.285 271.02 412.777 270.634 413.402 270.357C414.027 270.08 414.737 269.942 415.532 269.942C416.342 269.942 417.049 270.08 417.652 270.357C418.26 270.634 418.732 271.02 419.069 271.513C419.407 272.007 419.581 272.578 419.591 273.228H417.381ZM425.409 277.207H427.37L428.355 278.475L429.325 279.604L431.152 281.895H429L427.743 280.35L427.098 279.434L425.409 277.207ZM431.317 275.545C431.317 276.735 431.091 277.747 430.64 278.582C430.193 279.416 429.582 280.054 428.808 280.494C428.037 280.931 427.171 281.149 426.208 281.149C425.239 281.149 424.369 280.929 423.598 280.489C422.828 280.048 422.219 279.411 421.771 278.576C421.324 277.742 421.1 276.732 421.1 275.545C421.1 274.356 421.324 273.344 421.771 272.509C422.219 271.675 422.828 271.039 423.598 270.602C424.369 270.162 425.239 269.942 426.208 269.942C427.171 269.942 428.037 270.162 428.808 270.602C429.582 271.039 430.193 271.675 430.64 272.509C431.091 273.344 431.317 274.356 431.317 275.545ZM428.978 275.545C428.978 274.775 428.863 274.125 428.632 273.596C428.405 273.067 428.083 272.665 427.668 272.392C427.252 272.119 426.766 271.982 426.208 271.982C425.651 271.982 425.164 272.119 424.749 272.392C424.333 272.665 424.01 273.067 423.779 273.596C423.552 274.125 423.439 274.775 423.439 275.545C423.439 276.316 423.552 276.966 423.779 277.495C424.01 278.024 424.333 278.425 424.749 278.699C425.164 278.972 425.651 279.109 426.208 279.109C426.766 279.109 427.252 278.972 427.668 278.699C428.083 278.425 428.405 278.024 428.632 277.495C428.863 276.966 428.978 276.316 428.978 275.545ZM433.025 281V270.091H435.332V279.098H440.009V281H433.025Z" fill="white"/>
<path d="M390.828 222H388.357L392.123 211.091H395.095L398.856 222H396.384L393.652 213.584H393.566L390.828 222ZM390.674 217.712H396.512V219.512H390.674V217.712ZM402.395 217.27V222H400.126V213.818H402.289V215.262H402.385C402.566 214.786 402.869 214.409 403.296 214.132C403.722 213.852 404.238 213.712 404.846 213.712C405.414 213.712 405.909 213.836 406.332 214.085C406.754 214.333 407.083 214.688 407.317 215.15C407.552 215.608 407.669 216.155 407.669 216.79V222H405.4V217.195C405.403 216.695 405.275 216.304 405.016 216.023C404.757 215.739 404.4 215.597 403.945 215.597C403.64 215.597 403.37 215.663 403.136 215.794C402.905 215.926 402.724 216.118 402.593 216.37C402.465 216.618 402.399 216.918 402.395 217.27ZM412.472 222.133C411.851 222.133 411.288 221.973 410.784 221.654C410.283 221.331 409.885 220.857 409.59 220.232C409.299 219.603 409.154 218.832 409.154 217.92C409.154 216.982 409.305 216.203 409.606 215.581C409.908 214.956 410.31 214.489 410.81 214.18C411.315 213.868 411.867 213.712 412.467 213.712C412.925 213.712 413.307 213.79 413.612 213.946C413.921 214.099 414.17 214.29 414.358 214.521C414.55 214.749 414.695 214.972 414.795 215.192H414.864V211.091H417.128V222H414.891V220.69H414.795C414.688 220.917 414.537 221.142 414.342 221.366C414.15 221.586 413.9 221.769 413.591 221.915C413.285 222.06 412.913 222.133 412.472 222.133ZM413.191 220.327C413.557 220.327 413.866 220.228 414.118 220.029C414.374 219.827 414.569 219.544 414.704 219.182C414.843 218.82 414.912 218.396 414.912 217.909C414.912 217.423 414.844 217 414.709 216.641C414.574 216.283 414.379 216.006 414.123 215.81C413.868 215.615 413.557 215.517 413.191 215.517C412.818 215.517 412.504 215.619 412.248 215.821C411.993 216.023 411.799 216.304 411.668 216.663C411.536 217.021 411.471 217.437 411.471 217.909C411.471 218.385 411.536 218.806 411.668 219.172C411.803 219.534 411.996 219.818 412.248 220.024C412.504 220.226 412.818 220.327 413.191 220.327ZM418.993 222V213.818H421.193V215.246H421.279C421.428 214.738 421.678 214.354 422.03 214.095C422.381 213.832 422.786 213.701 423.244 213.701C423.358 213.701 423.48 213.708 423.612 213.722C423.743 213.737 423.858 213.756 423.958 213.781V215.794C423.851 215.762 423.704 215.734 423.516 215.709C423.328 215.684 423.155 215.672 422.999 215.672C422.665 215.672 422.367 215.745 422.104 215.89C421.845 216.032 421.639 216.231 421.486 216.487C421.337 216.743 421.263 217.037 421.263 217.371V222H418.993ZM428.447 222.16C427.62 222.16 426.904 221.984 426.3 221.632C425.7 221.277 425.237 220.784 424.91 220.152C424.583 219.516 424.42 218.779 424.42 217.941C424.42 217.096 424.583 216.357 424.91 215.725C425.237 215.089 425.7 214.596 426.3 214.244C426.904 213.889 427.62 213.712 428.447 213.712C429.274 213.712 429.988 213.889 430.588 214.244C431.192 214.596 431.657 215.089 431.984 215.725C432.311 216.357 432.474 217.096 432.474 217.941C432.474 218.779 432.311 219.516 431.984 220.152C431.657 220.784 431.192 221.277 430.588 221.632C429.988 221.984 429.274 222.16 428.447 222.16ZM428.458 220.402C428.834 220.402 429.148 220.295 429.4 220.082C429.653 219.866 429.843 219.571 429.97 219.198C430.102 218.825 430.168 218.401 430.168 217.925C430.168 217.449 430.102 217.025 429.97 216.652C429.843 216.279 429.653 215.984 429.4 215.768C429.148 215.551 428.834 215.443 428.458 215.443C428.078 215.443 427.758 215.551 427.499 215.768C427.243 215.984 427.05 216.279 426.918 216.652C426.79 217.025 426.726 217.449 426.726 217.925C426.726 218.401 426.79 218.825 426.918 219.198C427.05 219.571 427.243 219.866 427.499 220.082C427.758 220.295 428.078 220.402 428.458 220.402ZM433.949 222V213.818H436.219V222H433.949ZM435.089 212.763C434.752 212.763 434.463 212.652 434.221 212.428C433.983 212.201 433.864 211.929 433.864 211.613C433.864 211.3 433.983 211.032 434.221 210.809C434.463 210.581 434.752 210.468 435.089 210.468C435.427 210.468 435.714 210.581 435.952 210.809C436.194 211.032 436.315 211.3 436.315 211.613C436.315 211.929 436.194 212.201 435.952 212.428C435.714 212.652 435.427 212.763 435.089 212.763ZM441.051 222.133C440.43 222.133 439.867 221.973 439.363 221.654C438.862 221.331 438.464 220.857 438.17 220.232C437.878 219.603 437.733 218.832 437.733 217.92C437.733 216.982 437.884 216.203 438.186 215.581C438.487 214.956 438.889 214.489 439.389 214.18C439.894 213.868 440.446 213.712 441.046 213.712C441.504 213.712 441.886 213.79 442.191 213.946C442.5 214.099 442.749 214.29 442.937 214.521C443.129 214.749 443.274 214.972 443.374 215.192H443.443V211.091H445.707V222H443.47V220.69H443.374C443.267 220.917 443.116 221.142 442.921 221.366C442.729 221.586 442.479 221.769 442.17 221.915C441.865 222.06 441.492 222.133 441.051 222.133ZM441.77 220.327C442.136 220.327 442.445 220.228 442.697 220.029C442.953 219.827 443.148 219.544 443.283 219.182C443.422 218.82 443.491 218.396 443.491 217.909C443.491 217.423 443.423 217 443.289 216.641C443.154 216.283 442.958 216.006 442.703 215.81C442.447 215.615 442.136 215.517 441.77 215.517C441.398 215.517 441.083 215.619 440.828 215.821C440.572 216.023 440.378 216.304 440.247 216.663C440.116 217.021 440.05 217.437 440.05 217.909C440.05 218.385 440.116 218.806 440.247 219.172C440.382 219.534 440.575 219.818 440.828 220.024C441.083 220.226 441.398 220.327 441.77 220.327Z" fill="#3DDC84"/>
<path d="M399.574 148.91H397.24C397.198 148.608 397.111 148.34 396.979 148.106C396.848 147.868 396.679 147.665 396.473 147.499C396.267 147.332 396.029 147.204 395.76 147.115C395.493 147.026 395.204 146.982 394.891 146.982C394.327 146.982 393.835 147.122 393.416 147.403C392.997 147.68 392.672 148.085 392.441 148.617C392.21 149.146 392.095 149.789 392.095 150.545C392.095 151.323 392.21 151.977 392.441 152.506C392.675 153.035 393.002 153.434 393.421 153.704C393.84 153.974 394.325 154.109 394.875 154.109C395.184 154.109 395.47 154.068 395.733 153.987C395.999 153.905 396.235 153.786 396.441 153.63C396.647 153.47 396.818 153.276 396.953 153.049C397.091 152.822 397.187 152.562 397.24 152.271L399.574 152.282C399.513 152.783 399.362 153.266 399.121 153.731C398.883 154.192 398.561 154.606 398.157 154.972C397.755 155.334 397.276 155.622 396.718 155.835C396.164 156.044 395.538 156.149 394.838 156.149C393.865 156.149 392.995 155.929 392.228 155.489C391.464 155.048 390.861 154.411 390.417 153.576C389.977 152.742 389.756 151.732 389.756 150.545C389.756 149.356 389.98 148.344 390.428 147.509C390.875 146.675 391.482 146.039 392.249 145.602C393.016 145.162 393.879 144.942 394.838 144.942C395.47 144.942 396.056 145.031 396.596 145.208C397.139 145.386 397.62 145.645 398.039 145.986C398.458 146.323 398.799 146.737 399.062 147.227C399.328 147.717 399.499 148.278 399.574 148.91ZM403.518 156.154C402.996 156.154 402.531 156.064 402.122 155.883C401.714 155.698 401.391 155.426 401.153 155.068C400.919 154.706 400.801 154.255 400.801 153.715C400.801 153.26 400.885 152.879 401.052 152.57C401.219 152.261 401.446 152.012 401.733 151.824C402.021 151.636 402.348 151.494 402.714 151.398C403.083 151.302 403.47 151.234 403.875 151.195C404.351 151.146 404.734 151.099 405.025 151.057C405.317 151.011 405.528 150.943 405.659 150.854C405.791 150.766 405.856 150.634 405.856 150.46V150.428C405.856 150.091 405.75 149.83 405.537 149.645C405.327 149.461 405.029 149.368 404.642 149.368C404.233 149.368 403.909 149.459 403.667 149.64C403.426 149.817 403.266 150.041 403.188 150.311L401.089 150.141C401.195 149.643 401.405 149.214 401.718 148.852C402.03 148.486 402.433 148.205 402.927 148.01C403.424 147.811 403.999 147.712 404.653 147.712C405.107 147.712 405.542 147.765 405.958 147.871C406.377 147.978 406.748 148.143 407.071 148.367C407.398 148.591 407.655 148.878 407.843 149.23C408.031 149.578 408.126 149.995 408.126 150.482V156H405.974V154.865H405.91C405.778 155.121 405.602 155.347 405.382 155.542C405.162 155.734 404.898 155.885 404.589 155.995C404.28 156.101 403.923 156.154 403.518 156.154ZM404.168 154.588C404.502 154.588 404.796 154.523 405.052 154.391C405.308 154.256 405.508 154.075 405.654 153.848C405.8 153.621 405.872 153.363 405.872 153.076V152.207C405.801 152.254 405.704 152.296 405.579 152.335C405.459 152.371 405.322 152.404 405.169 152.436C405.017 152.465 404.864 152.491 404.711 152.516C404.558 152.538 404.42 152.557 404.296 152.575C404.029 152.614 403.797 152.676 403.598 152.761C403.399 152.847 403.244 152.962 403.134 153.108C403.024 153.25 402.969 153.427 402.969 153.64C402.969 153.949 403.081 154.185 403.305 154.349C403.532 154.509 403.82 154.588 404.168 154.588ZM412.155 151.27V156H409.886V147.818H412.049V149.262H412.145C412.326 148.786 412.629 148.409 413.055 148.132C413.482 147.852 413.998 147.712 414.605 147.712C415.174 147.712 415.669 147.836 416.092 148.085C416.514 148.333 416.843 148.688 417.077 149.15C417.311 149.608 417.429 150.155 417.429 150.79V156H415.159V151.195C415.163 150.695 415.035 150.304 414.776 150.023C414.517 149.739 414.16 149.597 413.705 149.597C413.4 149.597 413.13 149.663 412.896 149.794C412.665 149.926 412.484 150.118 412.352 150.37C412.224 150.618 412.159 150.918 412.155 151.27ZM426.552 147.818L423.691 156H421.135L418.274 147.818H420.671L422.37 153.672H422.456L424.15 147.818H426.552ZM429.827 156.154C429.305 156.154 428.839 156.064 428.431 155.883C428.023 155.698 427.699 155.426 427.461 155.068C427.227 154.706 427.11 154.255 427.11 153.715C427.11 153.26 427.193 152.879 427.36 152.57C427.527 152.261 427.754 152.012 428.042 151.824C428.33 151.636 428.656 151.494 429.022 151.398C429.392 151.302 429.779 151.234 430.183 151.195C430.659 151.146 431.043 151.099 431.334 151.057C431.625 151.011 431.836 150.943 431.968 150.854C432.099 150.766 432.165 150.634 432.165 150.46V150.428C432.165 150.091 432.058 149.83 431.845 149.645C431.636 149.461 431.338 149.368 430.95 149.368C430.542 149.368 430.217 149.459 429.976 149.64C429.734 149.817 429.574 150.041 429.496 150.311L427.398 150.141C427.504 149.643 427.714 149.214 428.026 148.852C428.339 148.486 428.742 148.205 429.235 148.01C429.732 147.811 430.308 147.712 430.961 147.712C431.416 147.712 431.851 147.765 432.266 147.871C432.685 147.978 433.056 148.143 433.379 148.367C433.706 148.591 433.964 148.878 434.152 149.23C434.34 149.578 434.434 149.995 434.434 150.482V156H432.282V154.865H432.218C432.087 155.121 431.911 155.347 431.691 155.542C431.471 155.734 431.206 155.885 430.897 155.995C430.588 156.101 430.231 156.154 429.827 156.154ZM430.476 154.588C430.81 154.588 431.105 154.523 431.361 154.391C431.616 154.256 431.817 154.075 431.963 153.848C432.108 153.621 432.181 153.363 432.181 153.076V152.207C432.11 152.254 432.012 152.296 431.888 152.335C431.767 152.371 431.631 152.404 431.478 152.436C431.325 152.465 431.172 152.491 431.02 152.516C430.867 152.538 430.729 152.557 430.604 152.575C430.338 152.614 430.105 152.676 429.906 152.761C429.708 152.847 429.553 152.962 429.443 153.108C429.333 153.25 429.278 153.427 429.278 153.64C429.278 153.949 429.39 154.185 429.613 154.349C429.841 154.509 430.128 154.588 430.476 154.588Z" fill="#00C4CC"/>
<path d="M390.948 96V85.0909H398.171V86.9925H393.255V89.592H397.692V91.4936H393.255V96H390.948ZM399.68 96V87.8182H401.949V96H399.68ZM400.82 86.7635C400.483 86.7635 400.193 86.6516 399.952 86.4279C399.714 86.2006 399.595 85.929 399.595 85.6129C399.595 85.3004 399.714 85.0323 399.952 84.8086C400.193 84.5813 400.483 84.4677 400.82 84.4677C401.157 84.4677 401.445 84.5813 401.683 84.8086C401.924 85.0323 402.045 85.3004 402.045 85.6129C402.045 85.929 401.924 86.2006 401.683 86.4279C401.445 86.6516 401.157 86.7635 400.82 86.7635ZM407.453 99.2386C406.718 99.2386 406.088 99.1374 405.562 98.935C405.04 98.7362 404.624 98.4645 404.316 98.12C404.007 97.7756 403.806 97.3885 403.714 96.9588L405.812 96.6765C405.876 96.8398 405.977 96.9925 406.116 97.1346C406.254 97.2766 406.437 97.3903 406.665 97.4755C406.895 97.5643 407.176 97.6087 407.506 97.6087C408 97.6087 408.406 97.4879 408.726 97.2464C409.049 97.0085 409.211 96.609 409.211 96.0479V94.5511H409.115C409.015 94.7784 408.866 94.9933 408.667 95.1957C408.469 95.3981 408.213 95.5632 407.9 95.6911C407.588 95.8189 407.215 95.8828 406.782 95.8828C406.167 95.8828 405.608 95.7408 405.104 95.4567C404.603 95.169 404.204 94.7305 403.905 94.141C403.611 93.5479 403.463 92.7987 403.463 91.8931C403.463 90.9663 403.614 90.1921 403.916 89.5707C404.218 88.9492 404.619 88.484 405.12 88.1751C405.624 87.8661 406.176 87.7116 406.776 87.7116C407.235 87.7116 407.618 87.7898 407.927 87.946C408.236 88.0987 408.485 88.2905 408.673 88.5213C408.865 88.7486 409.012 88.9723 409.115 89.1925H409.2V87.8182H411.453V96.0799C411.453 96.7759 411.283 97.3583 410.942 97.8271C410.601 98.2958 410.129 98.6474 409.525 98.8817C408.925 99.1197 408.234 99.2386 407.453 99.2386ZM407.501 94.1783C407.867 94.1783 408.176 94.0877 408.428 93.9066C408.683 93.7219 408.879 93.4592 409.014 93.1183C409.152 92.7738 409.221 92.3619 409.221 91.8825C409.221 91.4031 409.154 90.9876 409.019 90.636C408.884 90.2809 408.689 90.0057 408.433 89.8104C408.177 89.6151 407.867 89.5174 407.501 89.5174C407.128 89.5174 406.814 89.6186 406.558 89.821C406.302 90.0199 406.109 90.2969 405.977 90.652C405.846 91.0071 405.78 91.4173 405.78 91.8825C405.78 92.3548 405.846 92.7631 405.977 93.1076C406.112 93.4485 406.306 93.7131 406.558 93.9013C406.814 94.0859 407.128 94.1783 407.501 94.1783ZM413.259 96V87.8182H415.422V89.2617H415.518C415.688 88.7823 415.972 88.4041 416.37 88.1271C416.768 87.8501 417.243 87.7116 417.797 87.7116C418.358 87.7116 418.836 87.8519 419.23 88.1325C419.624 88.4094 419.887 88.7859 420.019 89.2617H420.104C420.271 88.793 420.573 88.4183 421.009 88.1378C421.45 87.8537 421.97 87.7116 422.57 87.7116C423.334 87.7116 423.953 87.9549 424.429 88.4414C424.909 88.9244 425.148 89.6097 425.148 90.4975V96H422.884V90.945C422.884 90.4904 422.764 90.1495 422.522 89.9222C422.281 89.695 421.979 89.5813 421.617 89.5813C421.205 89.5813 420.883 89.7127 420.653 89.9755C420.422 90.2347 420.306 90.5774 420.306 91.0036V96H418.106V90.897C418.106 90.4957 417.991 90.1761 417.76 89.9382C417.533 89.7003 417.233 89.5813 416.86 89.5813C416.608 89.5813 416.381 89.6452 416.178 89.7731C415.979 89.8974 415.821 90.0732 415.704 90.3004C415.587 90.5241 415.528 90.7869 415.528 91.0888V96H413.259ZM429.274 96.1545C428.752 96.1545 428.287 96.0639 427.878 95.8828C427.47 95.6982 427.147 95.4265 426.909 95.0678C426.674 94.7056 426.557 94.2546 426.557 93.7148C426.557 93.2603 426.641 92.8786 426.808 92.5696C426.974 92.2607 427.202 92.0121 427.489 91.8239C427.777 91.6357 428.104 91.4936 428.469 91.3977C428.839 91.3018 429.226 91.2344 429.631 91.1953C430.107 91.1456 430.49 91.0994 430.781 91.0568C431.072 91.0107 431.284 90.9432 431.415 90.8544C431.547 90.7656 431.612 90.6342 431.612 90.4602V90.4283C431.612 90.0909 431.506 89.8299 431.293 89.6452C431.083 89.4606 430.785 89.3683 430.398 89.3683C429.989 89.3683 429.664 89.4588 429.423 89.6399C429.181 89.8175 429.022 90.0412 428.944 90.3111L426.845 90.1406C426.951 89.6435 427.161 89.2138 427.473 88.8516C427.786 88.4858 428.189 88.2053 428.683 88.0099C429.18 87.8111 429.755 87.7116 430.408 87.7116C430.863 87.7116 431.298 87.7649 431.713 87.8714C432.132 87.978 432.504 88.1431 432.827 88.3668C433.153 88.5906 433.411 88.8782 433.599 89.2298C433.787 89.5778 433.881 89.995 433.881 90.4815V96H431.729V94.8654H431.665C431.534 95.1211 431.358 95.3466 431.138 95.5419C430.918 95.7337 430.653 95.8846 430.344 95.9947C430.036 96.1012 429.679 96.1545 429.274 96.1545ZM429.924 94.5884C430.257 94.5884 430.552 94.5227 430.808 94.3913C431.064 94.2564 431.264 94.0753 431.41 93.848C431.555 93.6207 431.628 93.3633 431.628 93.0756V92.2074C431.557 92.2536 431.46 92.2962 431.335 92.3352C431.214 92.3707 431.078 92.4045 430.925 92.4364C430.772 92.4648 430.62 92.4915 430.467 92.5163C430.314 92.5376 430.176 92.5572 430.051 92.5749C429.785 92.614 429.553 92.6761 429.354 92.7614C429.155 92.8466 429 92.962 428.89 93.1076C428.78 93.2496 428.725 93.4272 428.725 93.6403C428.725 93.9492 428.837 94.1854 429.061 94.3487C429.288 94.5085 429.576 94.5884 429.924 94.5884Z" fill="#A8BAD7"/>
<path d="M86.9482 271V260.091H91.2521C92.0795 260.091 92.7844 260.249 93.3668 260.565C93.9492 260.877 94.3931 261.312 94.6985 261.87C95.0075 262.424 95.1619 263.063 95.1619 263.788C95.1619 264.512 95.0057 265.151 94.6932 265.705C94.3807 266.259 93.9279 266.691 93.3349 267C92.7454 267.309 92.0316 267.463 91.1935 267.463H88.4503V265.615H90.8207C91.2646 265.615 91.6303 265.538 91.918 265.386C92.2092 265.229 92.4258 265.015 92.5678 264.741C92.7134 264.464 92.7862 264.146 92.7862 263.788C92.7862 263.425 92.7134 263.109 92.5678 262.839C92.4258 262.566 92.2092 262.355 91.918 262.206C91.6268 262.053 91.2575 261.977 90.81 261.977H89.2546V271H86.9482ZM96.6601 271V260.091H98.9665V264.592H103.649V260.091H105.95V271H103.649V266.494H98.9665V271H96.6601ZM107.851 271V260.091H112.155C112.983 260.091 113.688 260.249 114.27 260.565C114.853 260.877 115.296 261.312 115.602 261.87C115.911 262.424 116.065 263.063 116.065 263.788C116.065 264.512 115.909 265.151 115.597 265.705C115.284 266.259 114.831 266.691 114.238 267C113.649 267.309 112.935 267.463 112.097 267.463H109.354V265.615H111.724C112.168 265.615 112.534 265.538 112.821 265.386C113.112 265.229 113.329 265.015 113.471 264.741C113.617 264.464 113.69 264.146 113.69 263.788C113.69 263.425 113.617 263.109 113.471 262.839C113.329 262.566 113.112 262.355 112.821 262.206C112.53 262.053 112.161 261.977 111.713 261.977H110.158V271H107.851Z" fill="#777BB3"/>
<path d="M86.9482 216V205.091H91.2521C92.076 205.091 92.7791 205.238 93.3615 205.533C93.9474 205.824 94.3931 206.238 94.6985 206.774C95.0075 207.307 95.1619 207.934 95.1619 208.654C95.1619 209.379 95.0057 210.002 94.6932 210.524C94.3807 211.043 93.9279 211.44 93.3349 211.717C92.7454 211.994 92.0316 212.133 91.1935 212.133H88.3118V210.279H90.8207C91.261 210.279 91.6268 210.219 91.918 210.098C92.2092 209.977 92.4258 209.796 92.5678 209.555C92.7134 209.313 92.7862 209.013 92.7862 208.654C92.7862 208.292 92.7134 207.987 92.5678 207.738C92.4258 207.49 92.2074 207.301 91.9126 207.174C91.6214 207.042 91.2539 206.977 90.81 206.977H89.2546V216H86.9482ZM92.8395 211.036L95.5508 216H93.0046L90.3519 211.036H92.8395ZM100.346 216.16C99.5045 216.16 98.7801 215.989 98.1729 215.648C97.5692 215.304 97.104 214.817 96.7773 214.189C96.4506 213.557 96.2872 212.809 96.2872 211.946C96.2872 211.105 96.4506 210.366 96.7773 209.73C97.104 209.095 97.5638 208.599 98.1569 208.244C98.7535 207.889 99.453 207.712 100.256 207.712C100.795 207.712 101.298 207.799 101.763 207.973C102.232 208.143 102.64 208.401 102.988 208.745C103.34 209.089 103.613 209.523 103.809 210.045C104.004 210.563 104.101 211.17 104.101 211.866V212.49H97.1927V211.083H101.965C101.965 210.757 101.894 210.467 101.752 210.215C101.61 209.963 101.413 209.766 101.161 209.624C100.913 209.478 100.623 209.406 100.293 209.406C99.9484 209.406 99.643 209.485 99.3767 209.645C99.1139 209.801 98.9079 210.013 98.7588 210.279C98.6096 210.542 98.5333 210.835 98.5297 211.158V212.495C98.5297 212.9 98.6043 213.25 98.7535 213.544C98.9062 213.839 99.121 214.066 99.398 214.226C99.675 214.386 100.003 214.466 100.383 214.466C100.636 214.466 100.866 214.43 101.076 214.359C101.285 214.288 101.465 214.182 101.614 214.04C101.763 213.898 101.877 213.724 101.955 213.518L104.054 213.656C103.947 214.161 103.729 214.601 103.398 214.977C103.072 215.35 102.649 215.641 102.131 215.851C101.616 216.057 101.021 216.16 100.346 216.16ZM107.915 216.154C107.393 216.154 106.928 216.064 106.52 215.883C106.111 215.698 105.788 215.426 105.55 215.068C105.316 214.706 105.199 214.255 105.199 213.715C105.199 213.26 105.282 212.879 105.449 212.57C105.616 212.261 105.843 212.012 106.131 211.824C106.419 211.636 106.745 211.494 107.111 211.398C107.48 211.302 107.867 211.234 108.272 211.195C108.748 211.146 109.132 211.099 109.423 211.057C109.714 211.011 109.925 210.943 110.057 210.854C110.188 210.766 110.254 210.634 110.254 210.46V210.428C110.254 210.091 110.147 209.83 109.934 209.645C109.725 209.461 109.426 209.368 109.039 209.368C108.631 209.368 108.306 209.459 108.065 209.64C107.823 209.817 107.663 210.041 107.585 210.311L105.486 210.141C105.593 209.643 105.802 209.214 106.115 208.852C106.427 208.486 106.831 208.205 107.324 208.01C107.821 207.811 108.397 207.712 109.05 207.712C109.505 207.712 109.94 207.765 110.355 207.871C110.774 207.978 111.145 208.143 111.468 208.367C111.795 208.591 112.052 208.878 112.241 209.23C112.429 209.578 112.523 209.995 112.523 210.482V216H110.371V214.865H110.307C110.176 215.121 110 215.347 109.78 215.542C109.56 215.734 109.295 215.885 108.986 215.995C108.677 216.101 108.32 216.154 107.915 216.154ZM108.565 214.588C108.899 214.588 109.194 214.523 109.449 214.391C109.705 214.256 109.906 214.075 110.051 213.848C110.197 213.621 110.27 213.363 110.27 213.076V212.207C110.199 212.254 110.101 212.296 109.977 212.335C109.856 212.371 109.719 212.404 109.567 212.436C109.414 212.465 109.261 212.491 109.109 212.516C108.956 212.538 108.817 212.557 108.693 212.575C108.427 212.614 108.194 212.676 107.995 212.761C107.796 212.847 107.642 212.962 107.532 213.108C107.422 213.25 107.367 213.427 107.367 213.64C107.367 213.949 107.479 214.185 107.702 214.349C107.93 214.509 108.217 214.588 108.565 214.588ZM117.98 216.16C117.142 216.16 116.421 215.982 115.818 215.627C115.217 215.268 114.756 214.771 114.433 214.136C114.113 213.5 113.953 212.768 113.953 211.941C113.953 211.103 114.115 210.368 114.438 209.736C114.765 209.1 115.228 208.605 115.828 208.25C116.428 207.891 117.142 207.712 117.97 207.712C118.683 207.712 119.308 207.841 119.845 208.1C120.381 208.36 120.805 208.724 121.118 209.192C121.43 209.661 121.602 210.212 121.634 210.844H119.493C119.433 210.435 119.273 210.107 119.014 209.858C118.758 209.606 118.422 209.48 118.007 209.48C117.655 209.48 117.348 209.576 117.085 209.768C116.826 209.956 116.624 210.231 116.478 210.593C116.332 210.956 116.26 211.394 116.26 211.909C116.26 212.431 116.331 212.875 116.473 213.241C116.618 213.607 116.823 213.885 117.085 214.077C117.348 214.269 117.655 214.365 118.007 214.365C118.266 214.365 118.499 214.311 118.705 214.205C118.914 214.098 119.086 213.944 119.221 213.741C119.36 213.536 119.45 213.289 119.493 213.001H121.634C121.599 213.626 121.428 214.176 121.123 214.652C120.821 215.125 120.404 215.494 119.871 215.76C119.339 216.027 118.708 216.16 117.98 216.16ZM127.439 207.818V209.523H122.512V207.818H127.439ZM123.631 205.858H125.9V213.486C125.9 213.695 125.932 213.859 125.996 213.976C126.059 214.089 126.148 214.169 126.262 214.216C126.379 214.262 126.514 214.285 126.667 214.285C126.773 214.285 126.88 214.276 126.986 214.258C127.093 214.237 127.175 214.221 127.231 214.21L127.588 215.899C127.475 215.934 127.315 215.975 127.109 216.021C126.903 216.071 126.653 216.101 126.358 216.112C125.811 216.133 125.331 216.06 124.92 215.893C124.511 215.727 124.193 215.467 123.966 215.116C123.739 214.764 123.627 214.32 123.631 213.784V205.858Z" fill="#61DAFB"/>
<path d="M96.5735 148.91H94.2404C94.1978 148.608 94.1108 148.34 93.9794 148.106C93.848 147.868 93.6793 147.665 93.4734 147.499C93.2674 147.332 93.0295 147.204 92.7596 147.115C92.4933 147.026 92.2038 146.982 91.8913 146.982C91.3267 146.982 90.8349 147.122 90.4158 147.403C89.9968 147.68 89.6719 148.085 89.4411 148.617C89.2102 149.146 89.0948 149.789 89.0948 150.545C89.0948 151.323 89.2102 151.977 89.4411 152.506C89.6754 153.035 90.0021 153.434 90.4212 153.704C90.8402 153.974 91.3249 154.109 91.8754 154.109C92.1843 154.109 92.4702 154.068 92.733 153.987C92.9993 153.905 93.2354 153.786 93.4414 153.63C93.6474 153.47 93.8178 153.276 93.9528 153.049C94.0913 152.822 94.1871 152.562 94.2404 152.271L96.5735 152.282C96.5131 152.783 96.3622 153.266 96.1207 153.731C95.8828 154.192 95.5614 154.606 95.1566 154.972C94.7553 155.334 94.2759 155.622 93.7184 155.835C93.1644 156.044 92.5376 156.149 91.8381 156.149C90.8651 156.149 89.995 155.929 89.228 155.489C88.4645 155.048 87.8608 154.411 87.4169 153.576C86.9766 152.742 86.7564 151.732 86.7564 150.545C86.7564 149.356 86.9801 148.344 87.4276 147.509C87.875 146.675 88.4822 146.039 89.2493 145.602C90.0163 145.162 90.8793 144.942 91.8381 144.942C92.4702 144.942 93.0561 145.031 93.5959 145.208C94.1392 145.386 94.6204 145.645 95.0394 145.986C95.4585 146.323 95.7994 146.737 96.0621 147.227C96.3285 147.717 96.4989 148.278 96.5735 148.91ZM104.145 148.228C104.103 147.799 103.92 147.465 103.597 147.227C103.274 146.989 102.835 146.87 102.281 146.87C101.905 146.87 101.587 146.923 101.328 147.03C101.068 147.133 100.869 147.277 100.731 147.461C100.596 147.646 100.529 147.855 100.529 148.09C100.521 148.285 100.562 148.456 100.651 148.601C100.743 148.747 100.869 148.873 101.029 148.979C101.189 149.082 101.374 149.173 101.583 149.251C101.793 149.326 102.017 149.39 102.254 149.443L103.235 149.677C103.71 149.784 104.147 149.926 104.545 150.103C104.943 150.281 105.287 150.499 105.578 150.759C105.869 151.018 106.095 151.323 106.255 151.675C106.418 152.026 106.502 152.429 106.505 152.884C106.502 153.551 106.331 154.13 105.994 154.62C105.66 155.107 105.177 155.485 104.545 155.755C103.916 156.021 103.158 156.154 102.27 156.154C101.39 156.154 100.623 156.02 99.9693 155.75C99.3194 155.48 98.8116 155.08 98.4458 154.551C98.0836 154.018 97.8936 153.36 97.8759 152.575H100.108C100.133 152.941 100.237 153.246 100.422 153.491C100.61 153.733 100.861 153.915 101.173 154.04C101.489 154.161 101.846 154.221 102.244 154.221C102.634 154.221 102.974 154.164 103.261 154.05C103.552 153.937 103.778 153.779 103.938 153.576C104.097 153.374 104.177 153.141 104.177 152.879C104.177 152.634 104.105 152.428 103.959 152.261C103.817 152.094 103.607 151.952 103.33 151.835C103.057 151.717 102.721 151.611 102.324 151.515L101.136 151.217C100.216 150.993 99.4899 150.643 98.9572 150.167C98.4245 149.691 98.16 149.05 98.1635 148.244C98.16 147.584 98.3358 147.007 98.6909 146.513C99.0495 146.02 99.5414 145.634 100.166 145.357C100.791 145.08 101.502 144.942 102.297 144.942C103.107 144.942 103.813 145.08 104.417 145.357C105.024 145.634 105.497 146.02 105.834 146.513C106.171 147.007 106.345 147.578 106.356 148.228H104.145ZM113.975 148.228C113.932 147.799 113.749 147.465 113.426 147.227C113.103 146.989 112.664 146.87 112.11 146.87C111.734 146.87 111.416 146.923 111.157 147.03C110.897 147.133 110.699 147.277 110.56 147.461C110.425 147.646 110.358 147.855 110.358 148.09C110.351 148.285 110.391 148.456 110.48 148.601C110.573 148.747 110.699 148.873 110.858 148.979C111.018 149.082 111.203 149.173 111.412 149.251C111.622 149.326 111.846 149.39 112.084 149.443L113.064 149.677C113.54 149.784 113.976 149.926 114.374 150.103C114.772 150.281 115.116 150.499 115.407 150.759C115.699 151.018 115.924 151.323 116.084 151.675C116.247 152.026 116.331 152.429 116.334 152.884C116.331 153.551 116.16 154.13 115.823 154.62C115.489 155.107 115.006 155.485 114.374 155.755C113.745 156.021 112.987 156.154 112.1 156.154C111.219 156.154 110.452 156.02 109.798 155.75C109.149 155.48 108.641 155.08 108.275 154.551C107.913 154.018 107.723 153.36 107.705 152.575H109.937C109.962 152.941 110.066 153.246 110.251 153.491C110.439 153.733 110.69 153.915 111.002 154.04C111.318 154.161 111.675 154.221 112.073 154.221C112.464 154.221 112.803 154.164 113.09 154.05C113.381 153.937 113.607 153.779 113.767 153.576C113.927 153.374 114.006 153.141 114.006 152.879C114.006 152.634 113.934 152.428 113.788 152.261C113.646 152.094 113.437 151.952 113.16 151.835C112.886 151.717 112.551 151.611 112.153 151.515L110.965 151.217C110.045 150.993 109.319 150.643 108.786 150.167C108.254 149.691 107.989 149.05 107.993 148.244C107.989 147.584 108.165 147.007 108.52 146.513C108.879 146.02 109.37 145.634 109.995 145.357C110.62 145.08 111.331 144.942 112.126 144.942C112.936 144.942 113.642 145.08 114.246 145.357C114.853 145.634 115.326 146.02 115.663 146.513C116 147.007 116.174 147.578 116.185 148.228H113.975Z" fill="#264DE4"/>
<path d="M341.239 139.041C341.107 139.055 340.694 139.104 340.329 139.147C338.86 139.315 337.194 139.756 335.731 140.372C330.439 142.584 326.456 147.435 325.357 153C325.098 154.323 325.035 154.974 325.035 156.5C325.035 158.467 325.231 159.825 325.749 161.54C327.443 167.154 331.853 171.557 337.481 173.257C339.175 173.769 340.54 173.965 342.5 173.965C344.467 173.965 345.825 173.769 347.541 173.251C353.154 171.557 357.557 167.147 359.258 161.519C359.769 159.825 359.965 158.46 359.965 156.5C359.965 155.667 359.923 154.715 359.874 154.365C359.307 150.319 357.641 146.917 354.862 144.137C352.089 141.38 348.702 139.707 344.739 139.14C344.194 139.063 341.667 138.992 341.239 139.041ZM335.535 150.066C335.907 150.179 336.081 150.284 336.333 150.535C336.823 151.033 336.935 151.306 336.935 152.054C336.935 152.615 336.914 152.72 336.746 153.014C336.423 153.559 335.675 154.064 335.157 154.077C334.792 154.085 334.807 153.924 335.206 153.504C335.738 152.951 335.815 152.741 335.815 151.914C335.808 151.117 335.71 150.844 335.339 150.62C335.031 150.431 334.695 150.445 334.205 150.675C332.931 151.285 331.552 153.315 331.013 155.394C330.299 158.166 331.566 160.385 333.652 160.006C334.261 159.894 335.409 159.307 335.907 158.844C336.319 158.467 336.319 158.46 336.361 157.991C336.452 157.01 337.144 156.031 338.069 155.576C338.496 155.365 338.601 155.345 339.175 155.345C339.721 155.345 339.847 155.373 340.113 155.519C340.96 156.003 340.785 157.13 339.868 157.13C339.336 157.13 339.063 156.856 339.448 156.71C339.827 156.57 339.686 156.045 339.246 155.926C338.727 155.793 338.139 156.143 337.768 156.815C337.32 157.627 337.299 158.593 337.726 159.034C338.139 159.475 338.657 159.125 339.056 158.123C339.266 157.613 339.567 157.339 339.917 157.339C340.225 157.339 340.282 157.529 340.148 158.103C339.952 158.992 340.085 159.222 340.638 158.95C340.82 158.866 341.121 158.67 341.303 158.53L341.646 158.257L341.877 157.046C342.129 155.688 342.227 155.505 342.745 155.408C343.242 155.316 343.354 155.562 343.172 156.339L343.073 156.773L343.438 156.401C344.299 155.519 345.356 155.086 345.72 155.45C345.916 155.645 345.894 155.891 345.615 156.758C345.482 157.172 345.299 157.823 345.216 158.194C345.09 158.754 345.083 158.887 345.153 158.978C345.378 159.244 346.063 158.97 346.672 158.375L347.029 158.026L347.072 157.249C347.113 156.352 347.197 156.031 347.435 155.744C347.659 155.478 348.065 155.282 348.282 155.338C348.499 155.394 348.499 155.604 348.303 156.22C348.03 157.067 348.058 159.02 348.338 159.02C348.451 159.02 349.024 158.418 349.388 157.914L349.661 157.542L349.444 157.319C349.066 156.92 348.975 156.661 348.975 156.01C348.975 155.534 349.01 155.359 349.129 155.127C349.325 154.764 349.633 154.498 349.997 154.392C350.382 154.274 350.858 154.469 351.053 154.82C351.25 155.176 351.201 155.974 350.949 156.521L350.767 156.92H351.012C351.348 156.92 351.481 156.836 352.083 156.269C352.398 155.968 352.762 155.709 353.035 155.582C354.106 155.079 355.367 155.338 355.576 156.108C355.751 156.724 355.367 157.158 354.694 157.109C354.211 157.074 354.12 156.947 354.4 156.71C354.904 156.289 354.4 155.751 353.679 155.947C353.287 156.052 352.846 156.492 352.615 157.004C352.153 158.026 352.398 159.23 353.063 159.23C353.329 159.23 353.798 158.705 353.98 158.194C354.197 157.605 354.652 157.235 354.995 157.368C355.184 157.438 355.198 157.627 355.079 158.222C354.946 158.873 354.925 159.482 355.03 159.762C355.072 159.866 355.198 160.063 355.317 160.196C355.541 160.447 355.548 160.539 355.359 160.658C355.268 160.721 355.148 160.693 354.855 160.532C354.449 160.322 354.099 159.944 353.973 159.587L353.896 159.377L353.616 159.587C353.454 159.699 353.203 159.825 353.056 159.866C352.475 160.02 351.761 159.622 351.425 158.95C351.292 158.69 351.25 157.928 351.348 157.634C351.404 157.473 351.404 157.473 351.179 157.585C351.061 157.648 350.809 157.717 350.613 157.739C350.291 157.774 350.242 157.809 349.92 158.215C349.465 158.781 348.66 159.545 348.331 159.706C347.631 160.056 347.401 159.957 347.218 159.236L347.092 158.754L346.791 159.02C346.406 159.356 345.636 159.762 345.195 159.86C344.775 159.951 344.327 159.817 344.145 159.537C343.873 159.118 343.963 158.229 344.397 157.032C344.718 156.143 344.488 156.129 343.676 156.976C343.074 157.613 342.815 158.068 342.647 158.775C342.472 159.51 342.262 159.776 341.787 159.888C341.499 159.951 341.366 159.776 341.422 159.391L341.464 159.082L341.198 159.265C340.82 159.524 340.343 159.762 340.014 159.853C339.686 159.944 339.252 159.846 339.147 159.664C338.958 159.342 338.958 159.342 338.664 159.573C338.027 160.091 337.117 159.944 336.655 159.258L336.508 159.041L336.046 159.468C334.716 160.686 333.05 161.232 331.818 160.854C330.25 160.378 329.382 159.034 329.396 157.095C329.403 155.149 330.264 153.098 331.713 151.579C332.532 150.725 333.302 150.22 334.087 150.031C334.653 149.891 334.997 149.899 335.535 150.067V150.066Z" fill="#00C4CC"/>
<path d="M349.724 155.044C349.57 155.198 349.626 155.814 349.822 156.206C349.92 156.409 350.025 156.57 350.06 156.57C350.088 156.57 350.151 156.409 350.2 156.212C350.375 155.485 350.06 154.707 349.724 155.044Z" fill="#00C4CC"/>
<defs>
<clipPath id="clip0_20_12">
<rect width="30" height="30" fill="white" transform="translate(325 77)"/>
</clipPath>
</defs>
</svg>
